<?xml version="1.0" encoding="UTF-8" standalone="no"?>
<?xml-stylesheet href="static/css/cargoflow_styles.css" type="text/css"?>
<!DOCTYPE svg PUBLIC "-//W3C//DTD SVG 1.1//EN"
 "http://www.w3.org/Graphics/SVG/1.1/DTD/svg11.dtd">
<!-- Generated by graphviz version 2.38.0 (20140413.2041)
 -->
<!-- Title: arctic_basic Pages: 1 -->
<svg width="1949pt" height="625pt"
 viewBox="0.00 0.00 1949.13 625.00" xmlns="http://www.w3.org/2000/svg" xmlns:xlink="http://www.w3.org/1999/xlink">
<g id="graph0" class="graph" transform="scale(1 1) rotate(0) translate(4 621)">
<title>arctic_basic</title>
<g id="a_graph0"><a xlink:title="Arctic Basic">
<polygon fill="white" stroke="none" points="-4,4 -4,-621 1945.13,-621 1945.13,4 -4,4"/>
</a>
</g>
<!-- C_alcohol -->
<g id="alcohol" class="node"><title>C_alcohol</title>
<g id="a_alcohol"><a xlink:href="cargos.html#alcohol" xlink:title="Alcohol" target="_top">
<ellipse fill="none" stroke="black" cx="1503.56" cy="-484" rx="39.7935" ry="18"/>
<text text-anchor="middle" x="1503.56" y="-480.3" font-family="sans-serif" font-size="14.00">Alcohol</text>
</a>
</g>
</g>
<!-- I_general_store -->
<g id="general_store" class="node"><title>I_general_store</title>
<g id="a_general_store"><a xlink:href="industries.html#general_store" xlink:title="General Store" target="_top">
<polygon fill="none" stroke="black" points="1715.45,-502 1604.45,-502 1604.45,-466 1715.45,-466 1715.45,-502"/>
<text text-anchor="start" x="1616.95" y="-479.8" font-family="sans-serif" font-size="14.00">General Store</text>
</a>
</g>
</g>
<!-- C_alcohol&#45;&gt;I_general_store -->
<g id="edge1" class="edge"><title>C_alcohol&#45;&gt;I_general_store</title>
<g id="a_edge1"><a xlink:title="Alcohol &#45;&gt; General Store">
<path fill="none" stroke="black" d="M1543.52,-484C1558.9,-484 1576.99,-484 1594.24,-484"/>
<polygon fill="black" stroke="black" points="1594.26,-487.5 1604.26,-484 1594.26,-480.5 1594.26,-487.5"/>
</a>
</g>
</g>
<!-- I_hotel -->
<g id="hotel" class="node"><title>I_hotel</title>
<g id="a_hotel"><a xlink:href="industries.html#hotel" xlink:title="Hotel" target="_top">
<polygon fill="none" stroke="black" points="1688.45,-442 1631.45,-442 1631.45,-406 1688.45,-406 1688.45,-442"/>
<text text-anchor="start" x="1643.95" y="-419.8" font-family="sans-serif" font-size="14.00">Hotel</text>
</a>
</g>
</g>
<!-- C_alcohol&#45;&gt;I_hotel -->
<g id="edge2" class="edge"><title>C_alcohol&#45;&gt;I_hotel</title>
<g id="a_edge2"><a xlink:title="Alcohol &#45;&gt; Hotel">
<path fill="none" stroke="black" d="M1534.33,-472.431C1559.3,-462.726 1595.09,-448.819 1621.91,-438.395"/>
<polygon fill="black" stroke="black" points="1623.3,-441.611 1631.35,-434.727 1620.76,-435.087 1623.3,-441.611"/>
</a>
</g>
</g>
<!-- CI_hotel_passengers -->
<g id="passengers" class="node"><title>CI_hotel_passengers</title>
<g id="a_passengers"><a xlink:href="cargos.html#passengers" xlink:title="Passengers" target="_top">
<ellipse fill="none" stroke="black" cx="1844.29" cy="-424" rx="55.7903" ry="18"/>
<text text-anchor="middle" x="1844.29" y="-420.3" font-family="sans-serif" font-size="14.00">Passengers</text>
</a>
</g>
</g>
<!-- I_hotel&#45;&gt;CI_hotel_passengers -->
<g id="edge32" class="edge"><title>I_hotel&#45;&gt;CI_hotel_passengers</title>
<g id="a_edge32"><a xlink:title="Hotel &#45;&gt; Passengers">
<path fill="none" stroke="black" d="M1688.65,-417.321C1713.82,-415.054 1751.8,-414.448 1783.83,-415.502"/>
<polygon fill="black" stroke="black" points="1783.86,-419.006 1793.99,-415.903 1784.14,-412.012 1783.86,-419.006"/>
</a>
</g>
</g>
<!-- C_engineering_supplies -->
<g id="engineering_supplies" class="node"><title>C_engineering_supplies</title>
<g id="a_engineering_supplies"><a xlink:href="cargos.html#engineering_supplies" xlink:title="Engineering Supplies" target="_top">
<ellipse fill="none" stroke="black" cx="1844.29" cy="-46" rx="96.6831" ry="18"/>
<text text-anchor="middle" x="1844.29" y="-42.3" font-family="sans-serif" font-size="14.00">Engineering Supplies</text>
</a>
</g>
</g>
<!-- C_explosives -->
<g id="explosives" class="node"><title>C_explosives</title>
<g id="a_explosives"><a xlink:href="cargos.html#explosives" xlink:title="Explosives" target="_top">
<ellipse fill="none" stroke="black" cx="1193.67" cy="-539" rx="51.9908" ry="18"/>
<text text-anchor="middle" x="1193.67" y="-535.3" font-family="sans-serif" font-size="14.00">Explosives</text>
</a>
</g>
</g>
<!-- I_trading_post -->
<g id="trading_post" class="node"><title>I_trading_post</title>
<g id="a_trading_post"><a xlink:href="industries.html#trading_post" xlink:title="Trading Post" target="_top">
<polygon fill="none" stroke="black" points="1391.66,-562 1288.66,-562 1288.66,-526 1391.66,-526 1391.66,-562"/>
<text text-anchor="start" x="1301.16" y="-539.8" font-family="sans-serif" font-size="14.00">Trading Post</text>
</a>
</g>
</g>
<!-- C_explosives&#45;&gt;I_trading_post -->
<g id="edge3" class="edge"><title>C_explosives&#45;&gt;I_trading_post</title>
<g id="a_edge3"><a xlink:title="Explosives &#45;&gt; Trading Post">
<path fill="none" stroke="black" d="M1245.61,-540.763C1256.08,-541.125 1267.2,-541.51 1277.99,-541.883"/>
<polygon fill="black" stroke="black" points="1278.08,-545.388 1288.19,-542.236 1278.32,-538.392 1278.08,-545.388"/>
</a>
</g>
</g>
<!-- I_trading_post&#45;&gt;C_alcohol -->
<g id="edge42" class="edge"><title>I_trading_post&#45;&gt;C_alcohol</title>
<g id="a_edge42"><a xlink:title="Trading Post &#45;&gt; Alcohol">
<path fill="none" stroke="black" d="M1389.59,-525.998C1413.04,-517.278 1440.85,-506.939 1463.01,-498.701"/>
<polygon fill="black" stroke="black" points="1464.29,-501.96 1472.45,-495.194 1461.85,-495.398 1464.29,-501.96"/>
</a>
</g>
</g>
<!-- C_farm_supplies -->
<g id="farm_supplies" class="node"><title>C_farm_supplies</title>
<g id="a_farm_supplies"><a xlink:href="cargos.html#farm_supplies" xlink:title="Farm Supplies" target="_top">
<ellipse fill="none" stroke="black" cx="1503.56" cy="-544" rx="68.7879" ry="18"/>
<text text-anchor="middle" x="1503.56" y="-540.3" font-family="sans-serif" font-size="14.00">Farm Supplies</text>
</a>
</g>
</g>
<!-- I_trading_post&#45;&gt;C_farm_supplies -->
<g id="edge43" class="edge"><title>I_trading_post&#45;&gt;C_farm_supplies</title>
<g id="a_edge43"><a xlink:title="Trading Post &#45;&gt; Farm Supplies">
<path fill="none" stroke="black" d="M1391.79,-544C1402.19,-544 1413.37,-544 1424.49,-544"/>
<polygon fill="black" stroke="black" points="1424.66,-547.5 1434.66,-544 1424.66,-540.5 1424.66,-547.5"/>
</a>
</g>
</g>
<!-- C_fertiliser -->
<g id="fertiliser" class="node"><title>C_fertiliser</title>
<g id="a_fertiliser"><a xlink:href="cargos.html#fertiliser" xlink:title="Fertiliser" target="_top">
<ellipse fill="none" stroke="black" cx="864.828" cy="-250" rx="44.6926" ry="18"/>
<text text-anchor="middle" x="864.828" y="-246.3" font-family="sans-serif" font-size="14.00">Fertiliser</text>
</a>
</g>
</g>
<!-- I_bulk_terminal -->
<g id="bulk_terminal" class="node"><title>I_bulk_terminal</title>
<g id="a_bulk_terminal"><a xlink:href="industries.html#bulk_terminal" xlink:title="Bulk Terminal" target="_top">
<polygon fill="none" stroke="black" points="1080.67,-281 970.674,-281 970.674,-245 1080.67,-245 1080.67,-281"/>
<text text-anchor="start" x="982.674" y="-258.8" font-family="sans-serif" font-size="14.00">Bulk Terminal</text>
</a>
</g>
</g>
<!-- C_fertiliser&#45;&gt;I_bulk_terminal -->
<g id="edge4" class="edge"><title>C_fertiliser&#45;&gt;I_bulk_terminal</title>
<g id="a_edge4"><a xlink:title="Fertiliser &#45;&gt; Bulk Terminal">
<path fill="none" stroke="black" d="M908.814,-253.518C924.713,-254.819 943.099,-256.324 960.475,-257.746"/>
<polygon fill="black" stroke="black" points="960.31,-261.244 970.562,-258.572 960.881,-254.267 960.31,-261.244"/>
</a>
</g>
</g>
<!-- C_food -->
<g id="food" class="node"><title>C_food</title>
<g id="a_food"><a xlink:href="cargos.html#food" xlink:title="Food" target="_top">
<ellipse fill="none" stroke="black" cx="1503.56" cy="-424" rx="30.5947" ry="18"/>
<text text-anchor="middle" x="1503.56" y="-420.3" font-family="sans-serif" font-size="14.00">Food</text>
</a>
</g>
</g>
<!-- I_bulk_terminal&#45;&gt;C_food -->
<g id="edge23" class="edge"><title>I_bulk_terminal&#45;&gt;C_food</title>
<g id="a_edge23"><a xlink:title="Bulk Terminal &#45;&gt; Food">
<path fill="none" stroke="black" d="M1080.88,-266.544C1171.14,-273.164 1347.74,-289.394 1402.66,-318 1438.62,-336.725 1468.72,-373.566 1486.19,-398.491"/>
<polygon fill="black" stroke="black" points="1483.52,-400.788 1492.05,-407.079 1489.31,-396.845 1483.52,-400.788"/>
</a>
</g>
</g>
<!-- C_kaolin -->
<g id="kaolin" class="node"><title>C_kaolin</title>
<g id="a_kaolin"><a xlink:href="cargos.html#kaolin" xlink:title="Kaolin" target="_top">
<ellipse fill="none" stroke="black" cx="1193.67" cy="-238" rx="35.194" ry="18"/>
<text text-anchor="middle" x="1193.67" y="-234.3" font-family="sans-serif" font-size="14.00">Kaolin</text>
</a>
</g>
</g>
<!-- I_bulk_terminal&#45;&gt;C_kaolin -->
<g id="edge24" class="edge"><title>I_bulk_terminal&#45;&gt;C_kaolin</title>
<g id="a_edge24"><a xlink:title="Bulk Terminal &#45;&gt; Kaolin">
<path fill="none" stroke="black" d="M1081.03,-254.814C1103.29,-251.461 1128.69,-247.636 1149.63,-244.482"/>
<polygon fill="black" stroke="black" points="1150.15,-247.943 1159.52,-242.992 1149.11,-241.021 1150.15,-247.943"/>
</a>
</g>
</g>
<!-- C_fish -->
<g id="fish" class="node"><title>C_fish</title>
<g id="a_fish"><a xlink:href="cargos.html#fish" xlink:title="Fish" target="_top">
<ellipse fill="none" stroke="black" cx="1193.67" cy="-348" rx="27" ry="18"/>
<text text-anchor="middle" x="1193.67" y="-344.3" font-family="sans-serif" font-size="14.00">Fish</text>
</a>
</g>
</g>
<!-- I_fishing_harbour -->
<g id="fishing_harbour" class="node"><title>I_fishing_harbour</title>
<g id="a_fishing_harbour"><a xlink:href="industries.html#fishing_harbour" xlink:title="Fishing Harbour" target="_top">
<polygon fill="none" stroke="black" points="1402.66,-366 1277.66,-366 1277.66,-330 1402.66,-330 1402.66,-366"/>
<text text-anchor="start" x="1290.16" y="-343.8" font-family="sans-serif" font-size="14.00">Fishing Harbour</text>
</a>
</g>
</g>
<!-- C_fish&#45;&gt;I_fishing_harbour -->
<g id="edge5" class="edge"><title>C_fish&#45;&gt;I_fishing_harbour</title>
<g id="a_edge5"><a xlink:title="Fish &#45;&gt; Fishing Harbour">
<path fill="none" stroke="black" d="M1220.84,-348C1233.97,-348 1250.59,-348 1267.19,-348"/>
<polygon fill="black" stroke="black" points="1267.49,-351.5 1277.49,-348 1267.49,-344.5 1267.49,-351.5"/>
</a>
</g>
</g>
<!-- I_fishing_harbour&#45;&gt;C_food -->
<g id="edge28" class="edge"><title>I_fishing_harbour&#45;&gt;C_food</title>
<g id="a_edge28"><a xlink:title="Fishing Harbour &#45;&gt; Food">
<path fill="none" stroke="black" d="M1379.41,-366.011C1406.98,-378.99 1443.77,-396.319 1469.95,-408.644"/>
<polygon fill="black" stroke="black" points="1468.54,-411.847 1479.07,-412.941 1471.52,-405.515 1468.54,-411.847"/>
</a>
</g>
</g>
<!-- C_food&#45;&gt;I_general_store -->
<g id="edge6" class="edge"><title>C_food&#45;&gt;I_general_store</title>
<g id="a_edge6"><a xlink:title="Food &#45;&gt; General Store">
<path fill="none" stroke="black" d="M1529.36,-433.64C1549.17,-441.336 1577.68,-452.416 1602.92,-462.225"/>
<polygon fill="black" stroke="black" points="1601.82,-465.553 1612.41,-465.913 1604.36,-459.028 1601.82,-465.553"/>
</a>
</g>
</g>
<!-- C_food&#45;&gt;I_hotel -->
<g id="edge7" class="edge"><title>C_food&#45;&gt;I_hotel</title>
<g id="a_edge7"><a xlink:title="Food &#45;&gt; Hotel">
<path fill="none" stroke="black" d="M1534.33,-424C1559.08,-424 1594.46,-424 1621.2,-424"/>
<polygon fill="black" stroke="black" points="1621.35,-427.5 1631.35,-424 1621.35,-420.5 1621.35,-427.5"/>
</a>
</g>
</g>
<!-- C_goods -->
<g id="goods" class="node"><title>C_goods</title>
<g id="a_goods"><a xlink:href="cargos.html#goods" xlink:title="Goods" target="_top">
<ellipse fill="none" stroke="black" cx="1193.67" cy="-599" rx="36.2938" ry="18"/>
<text text-anchor="middle" x="1193.67" y="-595.3" font-family="sans-serif" font-size="14.00">Goods</text>
</a>
</g>
</g>
<!-- C_goods&#45;&gt;I_general_store -->
<g id="edge8" class="edge"><title>C_goods&#45;&gt;I_general_store</title>
<g id="a_edge8"><a xlink:title="Goods &#45;&gt; General Store">
<path fill="none" stroke="black" d="M1228.47,-604.557C1297.07,-614.211 1455.95,-628.229 1572.45,-574 1601.98,-560.255 1626.65,-531.629 1641.99,-510.332"/>
<polygon fill="black" stroke="black" points="1644.95,-512.212 1647.79,-502.005 1639.2,-508.212 1644.95,-512.212"/>
</a>
</g>
</g>
<!-- C_goods&#45;&gt;I_trading_post -->
<g id="edge9" class="edge"><title>C_goods&#45;&gt;I_trading_post</title>
<g id="a_edge9"><a xlink:title="Goods &#45;&gt; Trading Post">
<path fill="none" stroke="black" d="M1223.22,-588.134C1240.04,-581.729 1261.94,-573.395 1282.16,-565.697"/>
<polygon fill="black" stroke="black" points="1283.52,-568.926 1291.62,-562.098 1281.03,-562.384 1283.52,-568.926"/>
</a>
</g>
</g>
<!-- I_paper_mill -->
<g id="paper_mill" class="node"><title>I_paper_mill</title>
<g id="a_paper_mill"><a xlink:href="industries.html#paper_mill" xlink:title="Paper Mill" target="_top">
<polygon fill="none" stroke="black" points="1382.66,-201 1297.66,-201 1297.66,-165 1382.66,-165 1382.66,-201"/>
<text text-anchor="start" x="1310.16" y="-178.8" font-family="sans-serif" font-size="14.00">Paper Mill</text>
</a>
</g>
</g>
<!-- C_kaolin&#45;&gt;I_paper_mill -->
<g id="edge10" class="edge"><title>C_kaolin&#45;&gt;I_paper_mill</title>
<g id="a_edge10"><a xlink:title="Kaolin &#45;&gt; Paper Mill">
<path fill="none" stroke="black" d="M1222.53,-227.395C1241.03,-220.353 1265.88,-210.896 1287.88,-202.521"/>
<polygon fill="black" stroke="black" points="1289.33,-205.714 1297.43,-198.885 1286.84,-199.172 1289.33,-205.714"/>
</a>
</g>
</g>
<!-- C_paper -->
<g id="paper" class="node"><title>C_paper</title>
<g id="a_paper"><a xlink:href="cargos.html#paper" xlink:title="Paper" target="_top">
<ellipse fill="none" stroke="black" cx="1503.56" cy="-73" rx="34.394" ry="18"/>
<text text-anchor="middle" x="1503.56" y="-69.3" font-family="sans-serif" font-size="14.00">Paper</text>
</a>
</g>
</g>
<!-- I_paper_mill&#45;&gt;C_paper -->
<g id="edge34" class="edge"><title>I_paper_mill&#45;&gt;C_paper</title>
<g id="a_edge34"><a xlink:title="Paper Mill &#45;&gt; Paper">
<path fill="none" stroke="black" d="M1367.82,-164.836C1396.83,-145.064 1443.08,-113.538 1473.14,-93.0528"/>
<polygon fill="black" stroke="black" points="1475.24,-95.8553 1481.53,-87.3312 1471.3,-90.071 1475.24,-95.8553"/>
</a>
</g>
</g>
<!-- I_port -->
<g id="port" class="node"><title>I_port</title>
<g id="a_port"><a xlink:href="industries.html#port" xlink:title="Port" target="_top">
<polygon fill="none" stroke="black" points="1686.95,-64 1632.95,-64 1632.95,-28 1686.95,-28 1686.95,-64"/>
<text text-anchor="start" x="1647.95" y="-41.8" font-family="sans-serif" font-size="14.00">Port</text>
</a>
</g>
</g>
<!-- C_paper&#45;&gt;I_port -->
<g id="edge11" class="edge"><title>C_paper&#45;&gt;I_port</title>
<g id="a_edge11"><a xlink:title="Paper &#45;&gt; Port">
<path fill="none" stroke="black" d="M1536.55,-67.4056C1561.66,-63.0148 1596.62,-56.9012 1622.75,-52.3313"/>
<polygon fill="black" stroke="black" points="1623.4,-55.7711 1632.64,-50.6007 1622.19,-48.8758 1623.4,-55.7711"/>
</a>
</g>
</g>
<!-- I_port&#45;&gt;C_engineering_supplies -->
<g id="edge37" class="edge"><title>I_port&#45;&gt;C_engineering_supplies</title>
<g id="a_edge37"><a xlink:title="Port &#45;&gt; Engineering Supplies">
<path fill="none" stroke="black" d="M1687.08,-46C1700.77,-46 1718.54,-46 1737.17,-46"/>
<polygon fill="black" stroke="black" points="1737.28,-49.5001 1747.28,-46 1737.28,-42.5001 1737.28,-49.5001"/>
</a>
</g>
</g>
<!-- C_peat -->
<g id="peat" class="node"><title>C_peat</title>
<g id="a_peat"><a xlink:href="cargos.html#peat" xlink:title="Peat" target="_top">
<ellipse fill="none" stroke="black" cx="1193.67" cy="-479" rx="28.6953" ry="18"/>
<text text-anchor="middle" x="1193.67" y="-475.3" font-family="sans-serif" font-size="14.00">Peat</text>
</a>
</g>
</g>
<!-- C_peat&#45;&gt;I_trading_post -->
<g id="edge13" class="edge"><title>C_peat&#45;&gt;I_trading_post</title>
<g id="a_edge13"><a xlink:title="Peat &#45;&gt; Trading Post">
<path fill="none" stroke="black" d="M1217.56,-489.299C1236.9,-497.997 1265.27,-510.757 1289.74,-521.766"/>
<polygon fill="black" stroke="black" points="1288.35,-524.977 1298.9,-525.888 1291.22,-518.593 1288.35,-524.977"/>
</a>
</g>
</g>
<!-- I_power_plant -->
<g id="power_plant" class="node"><title>I_power_plant</title>
<g id="a_power_plant"><a xlink:href="industries.html#power_plant" xlink:title="Power Plant" target="_top">
<polygon fill="none" stroke="black" points="1389.16,-502 1291.16,-502 1291.16,-466 1389.16,-466 1389.16,-502"/>
<text text-anchor="start" x="1303.16" y="-479.8" font-family="sans-serif" font-size="14.00">Power Plant</text>
</a>
</g>
</g>
<!-- C_peat&#45;&gt;I_power_plant -->
<g id="edge12" class="edge"><title>C_peat&#45;&gt;I_power_plant</title>
<g id="a_edge12"><a xlink:title="Peat &#45;&gt; Power Plant">
<path fill="none" stroke="black" d="M1222.53,-479.964C1239.09,-480.537 1260.72,-481.286 1280.85,-481.982"/>
<polygon fill="black" stroke="black" points="1280.78,-485.482 1290.9,-482.33 1281.03,-478.486 1280.78,-485.482"/>
</a>
</g>
</g>
<!-- C_phosphate -->
<g id="phosphate" class="node"><title>C_phosphate</title>
<g id="a_phosphate"><a xlink:href="cargos.html#phosphate" xlink:title="Phosphate" target="_top">
<ellipse fill="none" stroke="black" cx="586.686" cy="-133" rx="53.0913" ry="18"/>
<text text-anchor="middle" x="586.686" y="-129.3" font-family="sans-serif" font-size="14.00">Phosphate</text>
</a>
</g>
</g>
<!-- I_chemical_plant -->
<g id="chemical_plant" class="node"><title>I_chemical_plant</title>
<g id="a_chemical_plant"><a xlink:href="industries.html#chemical_plant" xlink:title="Chemical Plant" target="_top">
<polygon fill="none" stroke="black" points="787.982,-146 671.982,-146 671.982,-110 787.982,-110 787.982,-146"/>
<text text-anchor="start" x="683.982" y="-123.8" font-family="sans-serif" font-size="14.00">Chemical Plant</text>
</a>
</g>
</g>
<!-- C_phosphate&#45;&gt;I_chemical_plant -->
<g id="edge14" class="edge"><title>C_phosphate&#45;&gt;I_chemical_plant</title>
<g id="a_edge14"><a xlink:title="Phosphate &#45;&gt; Chemical Plant">
<path fill="none" stroke="black" d="M639.898,-131.152C646.951,-130.903 654.268,-130.644 661.539,-130.387"/>
<polygon fill="black" stroke="black" points="661.886,-133.877 671.756,-130.025 661.639,-126.881 661.886,-133.877"/>
</a>
</g>
</g>
<!-- I_chemical_plant&#45;&gt;C_explosives -->
<g id="edge25" class="edge"><title>I_chemical_plant&#45;&gt;C_explosives</title>
<g id="a_edge25"><a xlink:title="Chemical Plant &#45;&gt; Explosives">
<path fill="none" stroke="black" d="M738.163,-146.261C760.138,-199.793 831.729,-357.783 941.674,-441 1001.54,-486.315 1085.01,-513.331 1138.94,-527.181"/>
<polygon fill="black" stroke="black" points="1138.11,-530.58 1148.66,-529.615 1139.81,-523.79 1138.11,-530.58"/>
</a>
</g>
</g>
<!-- I_chemical_plant&#45;&gt;C_fertiliser -->
<g id="edge26" class="edge"><title>I_chemical_plant&#45;&gt;C_fertiliser</title>
<g id="a_edge26"><a xlink:title="Chemical Plant &#45;&gt; Fertiliser">
<path fill="none" stroke="black" d="M750.583,-146.002C773.869,-167.386 812.773,-203.114 838.367,-226.618"/>
<polygon fill="black" stroke="black" points="836.118,-229.305 845.851,-233.491 840.853,-224.149 836.118,-229.305"/>
</a>
</g>
</g>
<!-- C_pyrite_ore -->
<g id="pyrite_ore" class="node"><title>C_pyrite_ore</title>
<g id="a_pyrite_ore"><a xlink:href="cargos.html#pyrite_ore" xlink:title="Pyrite Ore" target="_top">
<ellipse fill="none" stroke="black" cx="250.696" cy="-42" rx="50.8918" ry="18"/>
<text text-anchor="middle" x="250.696" y="-38.3" font-family="sans-serif" font-size="14.00">Pyrite Ore</text>
</a>
</g>
</g>
<!-- I_pyrite_smelter -->
<g id="pyrite_smelter" class="node"><title>I_pyrite_smelter</title>
<g id="a_pyrite_smelter"><a xlink:href="industries.html#pyrite_smelter" xlink:title="Pyrite Smelter" target="_top">
<polygon fill="none" stroke="black" points="473.391,-60 361.391,-60 361.391,-24 473.391,-24 473.391,-60"/>
<text text-anchor="start" x="373.391" y="-37.8" font-family="sans-serif" font-size="14.00">Pyrite Smelter</text>
</a>
</g>
</g>
<!-- C_pyrite_ore&#45;&gt;I_pyrite_smelter -->
<g id="edge15" class="edge"><title>C_pyrite_ore&#45;&gt;I_pyrite_smelter</title>
<g id="a_edge15"><a xlink:title="Pyrite Ore &#45;&gt; Pyrite Smelter">
<path fill="none" stroke="black" d="M301.557,-42C317.159,-42 334.614,-42 351.113,-42"/>
<polygon fill="black" stroke="black" points="351.238,-45.5001 361.238,-42 351.238,-38.5001 351.238,-45.5001"/>
</a>
</g>
</g>
<!-- C_sulphur -->
<g id="sulphur" class="node"><title>C_sulphur</title>
<g id="a_sulphur"><a xlink:href="cargos.html#sulphur" xlink:title="Sulphur" target="_top">
<ellipse fill="none" stroke="black" cx="586.686" cy="-73" rx="42.7926" ry="18"/>
<text text-anchor="middle" x="586.686" y="-69.3" font-family="sans-serif" font-size="14.00">Sulphur</text>
</a>
</g>
</g>
<!-- I_pyrite_smelter&#45;&gt;C_sulphur -->
<g id="edge39" class="edge"><title>I_pyrite_smelter&#45;&gt;C_sulphur</title>
<g id="a_edge39"><a xlink:title="Pyrite Smelter &#45;&gt; Sulphur">
<path fill="none" stroke="black" d="M473.633,-52.2365C494.138,-56.0361 517.227,-60.3145 537.095,-63.996"/>
<polygon fill="black" stroke="black" points="536.69,-67.4804 547.16,-65.8611 537.965,-60.5976 536.69,-67.4804"/>
</a>
</g>
</g>
<!-- C_zinc -->
<g id="zinc" class="node"><title>C_zinc</title>
<g id="a_zinc"><a xlink:href="cargos.html#zinc" xlink:title="Zinc" target="_top">
<ellipse fill="none" stroke="black" cx="729.982" cy="-18" rx="27.8951" ry="18"/>
<text text-anchor="middle" x="729.982" y="-14.3" font-family="sans-serif" font-size="14.00">Zinc</text>
</a>
</g>
</g>
<!-- I_pyrite_smelter&#45;&gt;C_zinc -->
<g id="edge40" class="edge"><title>I_pyrite_smelter&#45;&gt;C_zinc</title>
<g id="a_edge40"><a xlink:title="Pyrite Smelter &#45;&gt; Zinc">
<path fill="none" stroke="black" d="M473.56,-37.7369C536.479,-32.8751 637.623,-25.0595 691.829,-20.8708"/>
<polygon fill="black" stroke="black" points="692.319,-24.3435 702.02,-20.0834 691.78,-17.3643 692.319,-24.3435"/>
</a>
</g>
</g>
<!-- C_sulphur&#45;&gt;I_paper_mill -->
<g id="edge17" class="edge"><title>C_sulphur&#45;&gt;I_paper_mill</title>
<g id="a_edge17"><a xlink:title="Sulphur &#45;&gt; Paper Mill">
<path fill="none" stroke="black" d="M629.791,-73C683.939,-73 780.889,-73 863.828,-73 863.828,-73 863.828,-73 1026.67,-73 1130.4,-73 1243.07,-127.595 1300.6,-159.861"/>
<polygon fill="black" stroke="black" points="1298.93,-162.936 1309.35,-164.836 1302.39,-156.85 1298.93,-162.936"/>
</a>
</g>
</g>
<!-- C_sulphur&#45;&gt;I_chemical_plant -->
<g id="edge16" class="edge"><title>C_sulphur&#45;&gt;I_chemical_plant</title>
<g id="a_edge16"><a xlink:title="Sulphur &#45;&gt; Chemical Plant">
<path fill="none" stroke="black" d="M618.694,-85.07C634.605,-91.2633 654.482,-99.0005 672.962,-106.194"/>
<polygon fill="black" stroke="black" points="671.881,-109.529 682.47,-109.895 674.421,-103.006 671.881,-109.529"/>
</a>
</g>
</g>
<!-- C_lumber -->
<g id="lumber" class="node"><title>C_lumber</title>
<g id="a_lumber"><a xlink:href="cargos.html#lumber" xlink:title="Timber" target="_top">
<ellipse fill="none" stroke="black" cx="864.828" cy="-521" rx="39.7935" ry="18"/>
<text text-anchor="middle" x="864.828" y="-517.3" font-family="sans-serif" font-size="14.00">Timber</text>
</a>
</g>
</g>
<!-- C_lumber&#45;&gt;I_bulk_terminal -->
<g id="edge18" class="edge"><title>C_lumber&#45;&gt;I_bulk_terminal</title>
<g id="a_edge18"><a xlink:title="Timber &#45;&gt; Bulk Terminal">
<path fill="none" stroke="black" d="M867.64,-502.791C872.534,-462.49 889.39,-364.61 941.674,-305 948.223,-297.533 956.415,-291.23 965.084,-285.962"/>
<polygon fill="black" stroke="black" points="966.858,-288.98 973.868,-281.035 963.434,-282.875 966.858,-288.98"/>
</a>
</g>
</g>
<!-- I_furniture_factory -->
<g id="furniture_factory" class="node"><title>I_furniture_factory</title>
<g id="a_furniture_factory"><a xlink:href="industries.html#furniture_factory" xlink:title="Furniture Factory" target="_top">
<polygon fill="none" stroke="black" points="1092.17,-578 959.174,-578 959.174,-542 1092.17,-542 1092.17,-578"/>
<text text-anchor="start" x="971.674" y="-555.8" font-family="sans-serif" font-size="14.00">Furniture Factory</text>
</a>
</g>
</g>
<!-- C_lumber&#45;&gt;I_furniture_factory -->
<g id="edge19" class="edge"><title>C_lumber&#45;&gt;I_furniture_factory</title>
<g id="a_edge19"><a xlink:title="Timber &#45;&gt; Furniture Factory">
<path fill="none" stroke="black" d="M900.295,-529.462C914.635,-532.983 931.89,-537.22 948.92,-541.401"/>
<polygon fill="black" stroke="black" points="948.351,-544.865 958.897,-543.85 950.02,-538.067 948.351,-544.865"/>
</a>
</g>
</g>
<!-- I_furniture_factory&#45;&gt;C_goods -->
<g id="edge30" class="edge"><title>I_furniture_factory&#45;&gt;C_goods</title>
<g id="a_edge30"><a xlink:title="Furniture Factory &#45;&gt; Goods">
<path fill="none" stroke="black" d="M1092.28,-575.414C1111.82,-580.006 1132.72,-584.914 1150.35,-589.058"/>
<polygon fill="black" stroke="black" points="1149.79,-592.521 1160.32,-591.401 1151.39,-585.706 1149.79,-592.521"/>
</a>
</g>
</g>
<!-- C_wood -->
<g id="wood" class="node"><title>C_wood</title>
<g id="a_wood"><a xlink:href="cargos.html#wood" xlink:title="Wood" target="_top">
<ellipse fill="none" stroke="black" cx="586.686" cy="-193" rx="34.394" ry="18"/>
<text text-anchor="middle" x="586.686" y="-189.3" font-family="sans-serif" font-size="14.00">Wood</text>
</a>
</g>
</g>
<!-- C_wood&#45;&gt;I_paper_mill -->
<g id="edge20" class="edge"><title>C_wood&#45;&gt;I_paper_mill</title>
<g id="a_edge20"><a xlink:title="Wood &#45;&gt; Paper Mill">
<path fill="none" stroke="black" d="M621.253,-191C673.216,-188.082 776.278,-183 863.828,-183 863.828,-183 863.828,-183 1026.67,-183 1118.35,-183 1225.14,-183 1287.16,-183"/>
<polygon fill="black" stroke="black" points="1287.46,-186.5 1297.46,-183 1287.46,-179.5 1287.46,-186.5"/>
</a>
</g>
</g>
<!-- I_sawmill -->
<g id="sawmill" class="node"><title>I_sawmill</title>
<g id="a_sawmill"><a xlink:href="industries.html#sawmill" xlink:title="Sawmill" target="_top">
<polygon fill="none" stroke="black" points="765.982,-397 693.982,-397 693.982,-361 765.982,-361 765.982,-397"/>
<text text-anchor="start" x="705.982" y="-374.8" font-family="sans-serif" font-size="14.00">Sawmill</text>
</a>
</g>
</g>
<!-- C_wood&#45;&gt;I_sawmill -->
<g id="edge21" class="edge"><title>C_wood&#45;&gt;I_sawmill</title>
<g id="a_edge21"><a xlink:title="Wood &#45;&gt; Sawmill">
<path fill="none" stroke="black" d="M600.474,-209.834C625.168,-242.341 679.574,-313.96 709.055,-352.769"/>
<polygon fill="black" stroke="black" points="706.456,-355.134 715.293,-360.98 712.031,-350.9 706.456,-355.134"/>
</a>
</g>
</g>
<!-- I_sawmill&#45;&gt;C_lumber -->
<g id="edge41" class="edge"><title>I_sawmill&#45;&gt;C_lumber</title>
<g id="a_edge41"><a xlink:title="Sawmill &#45;&gt; Timber">
<path fill="none" stroke="black" d="M744.532,-397.125C761.221,-418.956 790.938,-456.274 819.982,-485 824.875,-489.84 830.363,-494.719 835.758,-499.257"/>
<polygon fill="black" stroke="black" points="833.561,-501.982 843.513,-505.615 837.999,-496.568 833.561,-501.982"/>
</a>
</g>
</g>
<!-- C_zinc&#45;&gt;I_port -->
<g id="edge22" class="edge"><title>C_zinc&#45;&gt;I_port</title>
<g id="a_edge22"><a xlink:title="Zinc &#45;&gt; Port">
<path fill="none" stroke="black" d="M758.11,-18C809.918,-18 926.521,-18 1024.67,-18 1024.67,-18 1024.67,-18 1341.16,-18 1443.57,-18 1563.83,-32.6064 1622.73,-40.72"/>
<polygon fill="black" stroke="black" points="1622.27,-44.1898 1632.65,-42.1067 1623.23,-37.2571 1622.27,-44.1898"/>
</a>
</g>
</g>
<!-- I_fishing_grounds -->
<g id="fishing_grounds" class="node"><title>I_fishing_grounds</title>
<g id="a_fishing_grounds"><a xlink:href="industries.html#fishing_grounds" xlink:title="Fishing Grounds" target="_top">
<polygon fill="none" stroke="black" points="1089.17,-353 962.174,-353 962.174,-317 1089.17,-317 1089.17,-353"/>
<text text-anchor="start" x="974.674" y="-330.8" font-family="sans-serif" font-size="14.00">Fishing Grounds</text>
</a>
</g>
</g>
<!-- I_fishing_grounds&#45;&gt;C_fish -->
<g id="edge27" class="edge"><title>I_fishing_grounds&#45;&gt;C_fish</title>
<g id="a_edge27"><a xlink:title="Fishing Grounds &#45;&gt; Fish">
<path fill="none" stroke="black" d="M1089.43,-339.915C1112.15,-341.694 1137.03,-343.643 1156.68,-345.181"/>
<polygon fill="black" stroke="black" points="1156.47,-348.676 1166.72,-345.967 1157.02,-341.697 1156.47,-348.676"/>
</a>
</g>
</g>
<!-- I_forest -->
<g id="forest" class="node"><title>I_forest</title>
<g id="a_forest"><a xlink:href="industries.html#forest" xlink:title="Forest" target="_top">
<polygon fill="none" stroke="black" points="479.391,-227 355.391,-227 355.391,-175 479.391,-175 479.391,-227"/>
<text text-anchor="start" x="397.891" y="-207.8" font-family="sans-serif" font-size="14.00">Forest</text>
<text text-anchor="start" x="367.391" y="-186.8" font-family="sans-serif" font-size="14.00">[Farm Supplies]</text>
</a>
</g>
</g>
<!-- I_forest&#45;&gt;C_wood -->
<g id="edge29" class="edge"><title>I_forest&#45;&gt;C_wood</title>
<g id="a_edge29"><a xlink:title="Forest &#45;&gt; Wood">
<path fill="none" stroke="black" d="M479.736,-198.067C500.351,-197.081 522.915,-196.002 541.903,-195.094"/>
<polygon fill="black" stroke="black" points="542.227,-198.582 552.049,-194.609 541.893,-191.59 542.227,-198.582"/>
</a>
</g>
</g>
<!-- I_herding_coop -->
<g id="herding_coop" class="node"><title>I_herding_coop</title>
<g id="a_herding_coop"><a xlink:href="industries.html#herding_coop" xlink:title="Herding Co&#45;op" target="_top">
<polygon fill="none" stroke="black" points="1402.16,-442 1278.16,-442 1278.16,-390 1402.16,-390 1402.16,-442"/>
<text text-anchor="start" x="1294.16" y="-422.8" font-family="sans-serif" font-size="14.00">Herding Co&#45;op</text>
<text text-anchor="start" x="1290.16" y="-401.8" font-family="sans-serif" font-size="14.00">[Farm Supplies]</text>
</a>
</g>
</g>
<!-- I_herding_coop&#45;&gt;C_food -->
<g id="edge31" class="edge"><title>I_herding_coop&#45;&gt;C_food</title>
<g id="a_edge31"><a xlink:title="Herding Co&#45;op &#45;&gt; Food">
<path fill="none" stroke="black" d="M1402.18,-419.024C1422.57,-420.035 1444.75,-421.135 1463.06,-422.042"/>
<polygon fill="black" stroke="black" points="1462.91,-425.539 1473.07,-422.538 1463.26,-418.548 1462.91,-425.539"/>
</a>
</g>
</g>
<!-- CI_hotel_passengers&#45;&gt;I_hotel -->
<g id="edge33" class="edge"><title>CI_hotel_passengers&#45;&gt;I_hotel</title>
<g id="a_edge33"><a xlink:title="Passengers &#45;&gt; Hotel">
<path fill="none" stroke="black" d="M1793.99,-432.097C1764.01,-433.487 1726.3,-433.272 1698.69,-431.454"/>
<polygon fill="black" stroke="black" points="1698.89,-427.959 1688.65,-430.679 1698.35,-434.938 1698.89,-427.959"/>
</a>
</g>
</g>
<!-- I_peatlands -->
<g id="peatlands" class="node"><title>I_peatlands</title>
<g id="a_peatlands"><a xlink:href="industries.html#peatlands" xlink:title="Peatlands" target="_top">
<polygon fill="none" stroke="black" points="1109.67,-429 941.674,-429 941.674,-377 1109.67,-377 1109.67,-429"/>
<text text-anchor="start" x="995.174" y="-409.8" font-family="sans-serif" font-size="14.00">Peatlands</text>
<text text-anchor="start" x="953.674" y="-388.8" font-family="sans-serif" font-size="14.00">[Engineering Supplies]</text>
</a>
</g>
</g>
<!-- I_peatlands&#45;&gt;C_peat -->
<g id="edge35" class="edge"><title>I_peatlands&#45;&gt;C_peat</title>
<g id="a_edge35"><a xlink:title="Peatlands &#45;&gt; Peat">
<path fill="none" stroke="black" d="M1083.8,-429.155C1109.61,-440.974 1139.14,-454.492 1160.92,-464.466"/>
<polygon fill="black" stroke="black" points="1159.5,-467.663 1170.05,-468.644 1162.41,-461.299 1159.5,-467.663"/>
</a>
</g>
</g>
<!-- I_phosphate_mine -->
<g id="phosphate_mine" class="node"><title>I_phosphate_mine</title>
<g id="a_phosphate_mine"><a xlink:href="industries.html#phosphate_mine" xlink:title="Phosphate Mine" target="_top">
<polygon fill="none" stroke="black" points="501.391,-151 333.391,-151 333.391,-99 501.391,-99 501.391,-151"/>
<text text-anchor="start" x="367.391" y="-131.8" font-family="sans-serif" font-size="14.00">Phosphate Mine</text>
<text text-anchor="start" x="345.391" y="-110.8" font-family="sans-serif" font-size="14.00">[Engineering Supplies]</text>
</a>
</g>
</g>
<!-- I_phosphate_mine&#45;&gt;C_phosphate -->
<g id="edge36" class="edge"><title>I_phosphate_mine&#45;&gt;C_phosphate</title>
<g id="a_edge36"><a xlink:title="Phosphate Mine &#45;&gt; Phosphate">
<path fill="none" stroke="black" d="M501.549,-128.977C509.017,-129.334 516.491,-129.691 523.733,-130.037"/>
<polygon fill="black" stroke="black" points="523.634,-133.537 533.79,-130.518 523.968,-126.545 523.634,-133.537"/>
</a>
</g>
</g>
<!-- I_pyrite_mine -->
<g id="pyrite_mine" class="node"><title>I_pyrite_mine</title>
<g id="a_pyrite_mine"><a xlink:href="industries.html#pyrite_mine" xlink:title="Pyrite Mine" target="_top">
<polygon fill="none" stroke="black" points="168,-68 0,-68 0,-16 168,-16 168,-68"/>
<text text-anchor="start" x="49" y="-48.8" font-family="sans-serif" font-size="14.00">Pyrite Mine</text>
<text text-anchor="start" x="12" y="-27.8" font-family="sans-serif" font-size="14.00">[Engineering Supplies]</text>
</a>
</g>
</g>
<!-- I_pyrite_mine&#45;&gt;C_pyrite_ore -->
<g id="edge38" class="edge"><title>I_pyrite_mine&#45;&gt;C_pyrite_ore</title>
<g id="a_edge38"><a xlink:title="Pyrite Mine &#45;&gt; Pyrite Ore">
<path fill="none" stroke="black" d="M168.313,-42C175.329,-42 182.336,-42 189.129,-42"/>
<polygon fill="black" stroke="black" points="189.6,-45.5001 199.6,-42 189.6,-38.5001 189.6,-45.5001"/>
</a>
</g>
</g>
</g>
</svg>
