<?xml version="1.0" encoding="UTF-8" standalone="no"?>
<?xml-stylesheet href="static/css/cargoflow_styles.css" type="text/css"?>
<!DOCTYPE svg PUBLIC "-//W3C//DTD SVG 1.1//EN"
 "http://www.w3.org/Graphics/SVG/1.1/DTD/svg11.dtd">
<!-- Generated by graphviz version 2.38.0 (20140413.2041)
 -->
<!-- Title: temperate_basic Pages: 1 -->
<svg width="1646pt" height="564pt"
 viewBox="0.00 0.00 1645.64 564.00" xmlns="http://www.w3.org/2000/svg" xmlns:xlink="http://www.w3.org/1999/xlink">
<g id="graph0" class="graph" transform="scale(1 1) rotate(0) translate(4 560)">
<title>temperate_basic</title>
<g id="a_graph0"><a xlink:title="Temperate Basic">
<polygon fill="white" stroke="none" points="-4,4 -4,-560 1641.64,-560 1641.64,4 -4,4"/>
</a>
</g>
<!-- C_alcohol -->
<g id="alcohol" class="node"><title>C_alcohol</title>
<g id="a_alcohol"><a xlink:href="cargos.html#alcohol" xlink:title="Alcohol" target="_top">
<ellipse fill="none" stroke="black" cx="1229.32" cy="-128" rx="39.7935" ry="18"/>
<text text-anchor="middle" x="1229.32" y="-124.3" font-family="sans-serif" font-size="14.00">Alcohol</text>
</a>
</g>
</g>
<!-- I_general_store -->
<g id="general_store" class="node"><title>I_general_store</title>
<g id="a_general_store"><a xlink:href="industries.html#general_store" xlink:title="General Store" target="_top">
<polygon fill="none" stroke="black" points="1411.96,-211 1300.96,-211 1300.96,-175 1411.96,-175 1411.96,-211"/>
<text text-anchor="start" x="1313.46" y="-188.8" font-family="sans-serif" font-size="14.00">General Store</text>
</a>
</g>
</g>
<!-- C_alcohol&#45;&gt;I_general_store -->
<g id="edge1" class="edge"><title>C_alcohol&#45;&gt;I_general_store</title>
<g id="a_edge1"><a xlink:title="Alcohol &#45;&gt; General Store">
<path fill="none" stroke="black" d="M1256.25,-141.468C1272.17,-149.739 1292.98,-160.549 1311.43,-170.131"/>
<polygon fill="black" stroke="black" points="1310.06,-173.361 1320.54,-174.864 1313.28,-167.149 1310.06,-173.361"/>
</a>
</g>
</g>
<!-- I_hotel -->
<g id="hotel" class="node"><title>I_hotel</title>
<g id="a_hotel"><a xlink:href="industries.html#hotel" xlink:title="Hotel" target="_top">
<polygon fill="none" stroke="black" points="1384.96,-91 1327.96,-91 1327.96,-55 1384.96,-55 1384.96,-91"/>
<text text-anchor="start" x="1340.46" y="-68.8" font-family="sans-serif" font-size="14.00">Hotel</text>
</a>
</g>
</g>
<!-- C_alcohol&#45;&gt;I_hotel -->
<g id="edge2" class="edge"><title>C_alcohol&#45;&gt;I_hotel</title>
<g id="a_edge2"><a xlink:title="Alcohol &#45;&gt; Hotel">
<path fill="none" stroke="black" d="M1258.4,-115.657C1276.16,-107.854 1299.3,-97.6831 1318.53,-89.2301"/>
<polygon fill="black" stroke="black" points="1320.15,-92.3402 1327.9,-85.1125 1317.34,-85.9318 1320.15,-92.3402"/>
</a>
</g>
</g>
<!-- I_port -->
<g id="port" class="node"><title>I_port</title>
<g id="a_port"><a xlink:href="industries.html#port" xlink:title="Port" target="_top">
<polygon fill="none" stroke="black" points="1383.46,-151 1329.46,-151 1329.46,-115 1383.46,-115 1383.46,-151"/>
<text text-anchor="start" x="1344.46" y="-128.8" font-family="sans-serif" font-size="14.00">Port</text>
</a>
</g>
</g>
<!-- C_alcohol&#45;&gt;I_port -->
<g id="edge3" class="edge"><title>C_alcohol&#45;&gt;I_port</title>
<g id="a_edge3"><a xlink:title="Alcohol &#45;&gt; Port">
<path fill="none" stroke="black" d="M1268.88,-129.541C1284.76,-130.175 1303.06,-130.906 1318.73,-131.533"/>
<polygon fill="black" stroke="black" points="1318.97,-135.045 1329.1,-131.947 1319.25,-128.05 1318.97,-135.045"/>
</a>
</g>
</g>
<!-- CI_hotel_passengers -->
<g id="passengers" class="node"><title>CI_hotel_passengers</title>
<g id="a_passengers"><a xlink:href="cargos.html#passengers" xlink:title="Passengers" target="_top">
<ellipse fill="none" stroke="black" cx="1540.8" cy="-73" rx="55.7903" ry="18"/>
<text text-anchor="middle" x="1540.8" y="-69.3" font-family="sans-serif" font-size="14.00">Passengers</text>
</a>
</g>
</g>
<!-- I_hotel&#45;&gt;CI_hotel_passengers -->
<g id="edge33" class="edge"><title>I_hotel&#45;&gt;CI_hotel_passengers</title>
<g id="a_edge33"><a xlink:title="Hotel &#45;&gt; Passengers">
<path fill="none" stroke="black" d="M1385.16,-66.3209C1410.33,-64.0538 1448.31,-63.4476 1480.34,-64.5023"/>
<polygon fill="black" stroke="black" points="1480.37,-68.0063 1490.5,-64.9031 1480.65,-61.0117 1480.37,-68.0063"/>
</a>
</g>
</g>
<!-- C_engineering_supplies -->
<g id="engineering_supplies" class="node"><title>C_engineering_supplies</title>
<g id="a_engineering_supplies"><a xlink:href="cargos.html#engineering_supplies" xlink:title="Engineering Supplies" target="_top">
<ellipse fill="none" stroke="black" cx="1540.8" cy="-133" rx="96.6831" ry="18"/>
<text text-anchor="middle" x="1540.8" y="-129.3" font-family="sans-serif" font-size="14.00">Engineering Supplies</text>
</a>
</g>
</g>
<!-- I_port&#45;&gt;C_engineering_supplies -->
<g id="edge39" class="edge"><title>I_port&#45;&gt;C_engineering_supplies</title>
<g id="a_edge39"><a xlink:title="Port &#45;&gt; Engineering Supplies">
<path fill="none" stroke="black" d="M1383.59,-133C1397.28,-133 1415.05,-133 1433.68,-133"/>
<polygon fill="black" stroke="black" points="1433.79,-136.5 1443.79,-133 1433.79,-129.5 1433.79,-136.5"/>
</a>
</g>
</g>
<!-- C_chemicals -->
<g id="chemicals" class="node"><title>C_chemicals</title>
<g id="a_chemicals"><a xlink:href="cargos.html#chemicals" xlink:title="Chemicals" target="_top">
<ellipse fill="none" stroke="black" cx="931.775" cy="-302" rx="51.1914" ry="18"/>
<text text-anchor="middle" x="931.775" y="-298.3" font-family="sans-serif" font-size="14.00">Chemicals</text>
</a>
</g>
</g>
<!-- I_glass_works -->
<g id="glass_works" class="node"><title>I_glass_works</title>
<g id="a_glass_works"><a xlink:href="industries.html#glass_works" xlink:title="Glass Works" target="_top">
<polygon fill="none" stroke="black" points="1145.17,-260 1045.17,-260 1045.17,-224 1145.17,-224 1145.17,-260"/>
<text text-anchor="start" x="1057.17" y="-237.8" font-family="sans-serif" font-size="14.00">Glass Works</text>
</a>
</g>
</g>
<!-- C_chemicals&#45;&gt;I_glass_works -->
<g id="edge4" class="edge"><title>C_chemicals&#45;&gt;I_glass_works</title>
<g id="a_edge4"><a xlink:title="Chemicals &#45;&gt; Glass Works">
<path fill="none" stroke="black" d="M967.795,-288.981C987.751,-281.562 1013.26,-272.078 1036.13,-263.575"/>
<polygon fill="black" stroke="black" points="1037.6,-266.766 1045.75,-260.001 1035.16,-260.205 1037.6,-266.766"/>
</a>
</g>
</g>
<!-- I_metal_workshop -->
<g id="metal_workshop" class="node"><title>I_metal_workshop</title>
<g id="a_metal_workshop"><a xlink:href="industries.html#metal_workshop" xlink:title="Metal Workshop" target="_top">
<polygon fill="none" stroke="black" points="1157.67,-320 1032.67,-320 1032.67,-284 1157.67,-284 1157.67,-320"/>
<text text-anchor="start" x="1045.17" y="-297.8" font-family="sans-serif" font-size="14.00">Metal Workshop</text>
</a>
</g>
</g>
<!-- C_chemicals&#45;&gt;I_metal_workshop -->
<g id="edge5" class="edge"><title>C_chemicals&#45;&gt;I_metal_workshop</title>
<g id="a_edge5"><a xlink:title="Chemicals &#45;&gt; Metal Workshop">
<path fill="none" stroke="black" d="M983.398,-302C995.653,-302 1008.99,-302 1022.02,-302"/>
<polygon fill="black" stroke="black" points="1022.38,-305.5 1032.38,-302 1022.38,-298.5 1022.38,-305.5"/>
</a>
</g>
</g>
<!-- C_goods -->
<g id="goods" class="node"><title>C_goods</title>
<g id="a_goods"><a xlink:href="cargos.html#goods" xlink:title="Goods" target="_top">
<ellipse fill="none" stroke="black" cx="1229.32" cy="-238" rx="36.2938" ry="18"/>
<text text-anchor="middle" x="1229.32" y="-234.3" font-family="sans-serif" font-size="14.00">Goods</text>
</a>
</g>
</g>
<!-- I_glass_works&#45;&gt;C_goods -->
<g id="edge32" class="edge"><title>I_glass_works&#45;&gt;C_goods</title>
<g id="a_edge32"><a xlink:title="Glass Works &#45;&gt; Goods">
<path fill="none" stroke="black" d="M1145.38,-240.511C1157.52,-240.143 1170.48,-239.751 1182.46,-239.388"/>
<polygon fill="black" stroke="black" points="1182.8,-242.879 1192.69,-239.078 1182.59,-235.883 1182.8,-242.879"/>
</a>
</g>
</g>
<!-- I_metal_workshop&#45;&gt;C_goods -->
<g id="edge36" class="edge"><title>I_metal_workshop&#45;&gt;C_goods</title>
<g id="a_edge36"><a xlink:title="Metal Workshop &#45;&gt; Goods">
<path fill="none" stroke="black" d="M1133.68,-283.831C1152.4,-274.768 1174.9,-263.872 1193.26,-254.978"/>
<polygon fill="black" stroke="black" points="1194.97,-258.039 1202.44,-250.53 1191.92,-251.739 1194.97,-258.039"/>
</a>
</g>
</g>
<!-- C_clay -->
<g id="clay" class="node"><title>C_clay</title>
<g id="a_clay"><a xlink:href="cargos.html#clay" xlink:title="Clay" target="_top">
<ellipse fill="none" stroke="black" cx="571.736" cy="-314" rx="27.0966" ry="18"/>
<text text-anchor="middle" x="571.736" y="-310.3" font-family="sans-serif" font-size="14.00">Clay</text>
</a>
</g>
</g>
<!-- I_bulk_terminal -->
<g id="bulk_terminal" class="node"><title>I_bulk_terminal</title>
<g id="a_bulk_terminal"><a xlink:href="industries.html#bulk_terminal" xlink:title="Bulk Terminal" target="_top">
<polygon fill="none" stroke="black" points="801.881,-332 691.881,-332 691.881,-296 801.881,-296 801.881,-332"/>
<text text-anchor="start" x="703.881" y="-309.8" font-family="sans-serif" font-size="14.00">Bulk Terminal</text>
</a>
</g>
</g>
<!-- C_clay&#45;&gt;I_bulk_terminal -->
<g id="edge6" class="edge"><title>C_clay&#45;&gt;I_bulk_terminal</title>
<g id="a_edge6"><a xlink:title="Clay &#45;&gt; Bulk Terminal">
<path fill="none" stroke="black" d="M599.411,-314C621.208,-314 652.942,-314 681.302,-314"/>
<polygon fill="black" stroke="black" points="681.574,-317.5 691.574,-314 681.574,-310.5 681.574,-317.5"/>
</a>
</g>
</g>
<!-- I_bulk_terminal&#45;&gt;C_chemicals -->
<g id="edge22" class="edge"><title>I_bulk_terminal&#45;&gt;C_chemicals</title>
<g id="a_edge22"><a xlink:title="Bulk Terminal &#45;&gt; Chemicals">
<path fill="none" stroke="black" d="M802.26,-310.432C823.804,-309.019 848.651,-307.388 870.722,-305.94"/>
<polygon fill="black" stroke="black" points="871.226,-309.415 880.975,-305.267 870.767,-302.43 871.226,-309.415"/>
</a>
</g>
</g>
<!-- C_farm_supplies -->
<g id="farm_supplies" class="node"><title>C_farm_supplies</title>
<g id="a_farm_supplies"><a xlink:href="cargos.html#farm_supplies" xlink:title="Farm Supplies" target="_top">
<ellipse fill="none" stroke="black" cx="931.775" cy="-362" rx="68.7879" ry="18"/>
<text text-anchor="middle" x="931.775" y="-358.3" font-family="sans-serif" font-size="14.00">Farm Supplies</text>
</a>
</g>
</g>
<!-- I_bulk_terminal&#45;&gt;C_farm_supplies -->
<g id="edge23" class="edge"><title>I_bulk_terminal&#45;&gt;C_farm_supplies</title>
<g id="a_edge23"><a xlink:title="Bulk Terminal &#45;&gt; Farm Supplies">
<path fill="none" stroke="black" d="M802.26,-328.272C824.457,-334.097 850.162,-340.843 872.723,-346.764"/>
<polygon fill="black" stroke="black" points="871.95,-350.18 882.511,-349.333 873.727,-343.409 871.95,-350.18"/>
</a>
</g>
</g>
<!-- C_coal -->
<g id="coal" class="node"><title>C_coal</title>
<g id="a_coal"><a xlink:href="cargos.html#coal" xlink:title="Coal" target="_top">
<ellipse fill="none" stroke="black" cx="571.736" cy="-506" rx="27.8951" ry="18"/>
<text text-anchor="middle" x="571.736" y="-502.3" font-family="sans-serif" font-size="14.00">Coal</text>
</a>
</g>
</g>
<!-- I_blast_furnace -->
<g id="blast_furnace" class="node"><title>I_blast_furnace</title>
<g id="a_blast_furnace"><a xlink:href="industries.html#blast_furnace" xlink:title="Steel Mill" target="_top">
<polygon fill="none" stroke="black" points="786.881,-464 706.881,-464 706.881,-428 786.881,-428 786.881,-464"/>
<text text-anchor="start" x="718.881" y="-441.8" font-family="sans-serif" font-size="14.00">Steel Mill</text>
</a>
</g>
</g>
<!-- C_coal&#45;&gt;I_blast_furnace -->
<g id="edge7" class="edge"><title>C_coal&#45;&gt;I_blast_furnace</title>
<g id="a_edge7"><a xlink:title="Coal &#45;&gt; Steel Mill">
<path fill="none" stroke="black" d="M596.811,-497.657C622.58,-488.728 664.165,-474.317 696.875,-462.982"/>
<polygon fill="black" stroke="black" points="698.411,-466.154 706.714,-459.573 696.119,-459.54 698.411,-466.154"/>
</a>
</g>
</g>
<!-- C_steel -->
<g id="steel" class="node"><title>C_steel</title>
<g id="a_steel"><a xlink:href="cargos.html#steel" xlink:title="Steel" target="_top">
<ellipse fill="none" stroke="black" cx="931.775" cy="-422" rx="30.5947" ry="18"/>
<text text-anchor="middle" x="931.775" y="-418.3" font-family="sans-serif" font-size="14.00">Steel</text>
</a>
</g>
</g>
<!-- I_blast_furnace&#45;&gt;C_steel -->
<g id="edge41" class="edge"><title>I_blast_furnace&#45;&gt;C_steel</title>
<g id="a_edge41"><a xlink:title="Steel Mill &#45;&gt; Steel">
<path fill="none" stroke="black" d="M787.117,-440.851C818.047,-436.793 860.963,-431.161 891.821,-427.112"/>
<polygon fill="black" stroke="black" points="892.329,-430.575 901.789,-425.804 891.418,-423.635 892.329,-430.575"/>
</a>
</g>
</g>
<!-- C_fish -->
<g id="fish" class="node"><title>C_fish</title>
<g id="a_fish"><a xlink:href="cargos.html#fish" xlink:title="Fish" target="_top">
<ellipse fill="none" stroke="black" cx="233.796" cy="-101" rx="27" ry="18"/>
<text text-anchor="middle" x="233.796" y="-97.3" font-family="sans-serif" font-size="14.00">Fish</text>
</a>
</g>
</g>
<!-- I_fishing_harbour -->
<g id="fishing_harbour" class="node"><title>I_fishing_harbour</title>
<g id="a_fishing_harbour"><a xlink:href="industries.html#fishing_harbour" xlink:title="Fishing Harbour" target="_top">
<polygon fill="none" stroke="black" points="459.092,-119 334.092,-119 334.092,-83 459.092,-83 459.092,-119"/>
<text text-anchor="start" x="346.592" y="-96.8" font-family="sans-serif" font-size="14.00">Fishing Harbour</text>
</a>
</g>
</g>
<!-- C_fish&#45;&gt;I_fishing_harbour -->
<g id="edge8" class="edge"><title>C_fish&#45;&gt;I_fishing_harbour</title>
<g id="a_edge8"><a xlink:title="Fish &#45;&gt; Fishing Harbour">
<path fill="none" stroke="black" d="M260.988,-101C278.121,-101 301.399,-101 323.781,-101"/>
<polygon fill="black" stroke="black" points="323.975,-104.5 333.975,-101 323.975,-97.5001 323.975,-104.5"/>
</a>
</g>
</g>
<!-- C_food -->
<g id="food" class="node"><title>C_food</title>
<g id="a_food"><a xlink:href="cargos.html#food" xlink:title="Food" target="_top">
<ellipse fill="none" stroke="black" cx="571.736" cy="-183" rx="30.5947" ry="18"/>
<text text-anchor="middle" x="571.736" y="-179.3" font-family="sans-serif" font-size="14.00">Food</text>
</a>
</g>
</g>
<!-- I_fishing_harbour&#45;&gt;C_food -->
<g id="edge31" class="edge"><title>I_fishing_harbour&#45;&gt;C_food</title>
<g id="a_edge31"><a xlink:title="Fishing Harbour &#45;&gt; Food">
<path fill="none" stroke="black" d="M451.731,-119.003C461.462,-122.68 471.421,-126.738 480.592,-131 501.799,-140.856 524.606,-154.039 541.974,-164.665"/>
<polygon fill="black" stroke="black" points="540.178,-167.669 550.523,-169.957 543.863,-161.717 540.178,-167.669"/>
</a>
</g>
</g>
<!-- C_food&#45;&gt;I_general_store -->
<g id="edge10" class="edge"><title>C_food&#45;&gt;I_general_store</title>
<g id="a_edge10"><a xlink:title="Food &#45;&gt; General Store">
<path fill="none" stroke="black" d="M602.443,-183C663.79,-183 808.942,-183 930.775,-183 930.775,-183 930.775,-183 1096.17,-183 1162.48,-183 1238.25,-186.306 1290.69,-189.116"/>
<polygon fill="black" stroke="black" points="1290.68,-192.62 1300.85,-189.67 1291.06,-185.631 1290.68,-192.62"/>
</a>
</g>
</g>
<!-- C_food&#45;&gt;I_hotel -->
<g id="edge11" class="edge"><title>C_food&#45;&gt;I_hotel</title>
<g id="a_edge11"><a xlink:title="Food &#45;&gt; Hotel">
<path fill="none" stroke="black" d="M595.038,-171.019C650.254,-142.509 798.445,-73 930.775,-73 930.775,-73 930.775,-73 1096.17,-73 1174.97,-73 1267.24,-73 1317.72,-73"/>
<polygon fill="black" stroke="black" points="1317.83,-76.5001 1327.83,-73 1317.83,-69.5001 1317.83,-76.5001"/>
</a>
</g>
</g>
<!-- C_food&#45;&gt;I_bulk_terminal -->
<g id="edge9" class="edge"><title>C_food&#45;&gt;I_bulk_terminal</title>
<g id="a_edge9"><a xlink:title="Food &#45;&gt; Bulk Terminal">
<path fill="none" stroke="black" d="M583.604,-199.638C598.856,-221.782 628.613,-260.832 662.881,-284 668.903,-288.071 675.542,-291.663 682.365,-294.815"/>
<polygon fill="black" stroke="black" points="681.171,-298.111 691.74,-298.842 683.933,-291.679 681.171,-298.111"/>
</a>
</g>
</g>
<!-- C_fruits -->
<g id="fruits" class="node"><title>C_fruits</title>
<g id="a_fruits"><a xlink:href="cargos.html#fruits" xlink:title="Fruit" target="_top">
<ellipse fill="none" stroke="black" cx="233.796" cy="-37" rx="29.4969" ry="18"/>
<text text-anchor="middle" x="233.796" y="-33.3" font-family="sans-serif" font-size="14.00">Fruit</text>
</a>
</g>
</g>
<!-- I_brewery -->
<g id="brewery" class="node"><title>I_brewery</title>
<g id="a_brewery"><a xlink:href="industries.html#brewery" xlink:title="Cider Mill" target="_top">
<polygon fill="none" stroke="black" points="1136.17,-36 1054.17,-36 1054.17,-0 1136.17,-0 1136.17,-36"/>
<text text-anchor="start" x="1066.17" y="-13.8" font-family="sans-serif" font-size="14.00">Cider Mill</text>
</a>
</g>
</g>
<!-- C_fruits&#45;&gt;I_brewery -->
<g id="edge12" class="edge"><title>C_fruits&#45;&gt;I_brewery</title>
<g id="a_edge12"><a xlink:title="Fruit &#45;&gt; Cider Mill">
<path fill="none" stroke="black" d="M263.089,-34.7415C320.864,-30.3311 456.586,-21 570.736,-21 570.736,-21 570.736,-21 747.881,-21 853.03,-21 976.132,-19.5998 1043.58,-18.7126"/>
<polygon fill="black" stroke="black" points="1043.96,-22.2079 1053.92,-18.5749 1043.87,-15.2085 1043.96,-22.2079"/>
</a>
</g>
</g>
<!-- I_brewery&#45;&gt;C_alcohol -->
<g id="edge21" class="edge"><title>I_brewery&#45;&gt;C_alcohol</title>
<g id="a_edge21"><a xlink:title="Cider Mill &#45;&gt; Alcohol">
<path fill="none" stroke="black" d="M1117.99,-36.1643C1140.91,-55.2431 1176.98,-85.2664 1201.59,-105.753"/>
<polygon fill="black" stroke="black" points="1199.54,-108.598 1209.46,-112.305 1204.01,-103.218 1199.54,-108.598"/>
</a>
</g>
</g>
<!-- C_goods&#45;&gt;I_general_store -->
<g id="edge13" class="edge"><title>C_goods&#45;&gt;I_general_store</title>
<g id="a_edge13"><a xlink:title="Goods &#45;&gt; General Store">
<path fill="none" stroke="black" d="M1259.34,-227.563C1270.16,-223.673 1282.88,-219.101 1295.45,-214.578"/>
<polygon fill="black" stroke="black" points="1296.79,-217.818 1305.01,-211.141 1294.42,-211.231 1296.79,-217.818"/>
</a>
</g>
</g>
<!-- C_goods&#45;&gt;I_port -->
<g id="edge14" class="edge"><title>C_goods&#45;&gt;I_port</title>
<g id="a_edge14"><a xlink:title="Goods &#45;&gt; Port">
<path fill="none" stroke="black" d="M1243.37,-221.36C1256.67,-205.134 1278.48,-180.421 1300.96,-163 1306.89,-158.406 1313.61,-154.098 1320.26,-150.257"/>
<polygon fill="black" stroke="black" points="1322.13,-153.221 1329.2,-145.327 1318.75,-147.091 1322.13,-153.221"/>
</a>
</g>
</g>
<!-- C_iron_ore -->
<g id="iron_ore" class="node"><title>C_iron_ore</title>
<g id="a_iron_ore"><a xlink:href="cargos.html#iron_ore" xlink:title="Iron Ore" target="_top">
<ellipse fill="none" stroke="black" cx="571.736" cy="-446" rx="45.4919" ry="18"/>
<text text-anchor="middle" x="571.736" y="-442.3" font-family="sans-serif" font-size="14.00">Iron Ore</text>
</a>
</g>
</g>
<!-- C_iron_ore&#45;&gt;I_blast_furnace -->
<g id="edge15" class="edge"><title>C_iron_ore&#45;&gt;I_blast_furnace</title>
<g id="a_edge15"><a xlink:title="Iron Ore &#45;&gt; Steel Mill">
<path fill="none" stroke="black" d="M617.326,-446C641.631,-446 671.763,-446 696.744,-446"/>
<polygon fill="black" stroke="black" points="696.747,-449.5 706.747,-446 696.747,-442.5 696.747,-449.5"/>
</a>
</g>
</g>
<!-- C_livestock -->
<g id="livestock" class="node"><title>C_livestock</title>
<g id="a_livestock"><a xlink:href="cargos.html#livestock" xlink:title="Livestock" target="_top">
<ellipse fill="none" stroke="black" cx="233.796" cy="-161" rx="46.5926" ry="18"/>
<text text-anchor="middle" x="233.796" y="-157.3" font-family="sans-serif" font-size="14.00">Livestock</text>
</a>
</g>
</g>
<!-- I_stockyard -->
<g id="stockyard" class="node"><title>I_stockyard</title>
<g id="a_stockyard"><a xlink:href="industries.html#stockyard" xlink:title="Stockyard" target="_top">
<polygon fill="none" stroke="black" points="439.592,-179 353.592,-179 353.592,-143 439.592,-143 439.592,-179"/>
<text text-anchor="start" x="365.592" y="-156.8" font-family="sans-serif" font-size="14.00">Stockyard</text>
</a>
</g>
</g>
<!-- C_livestock&#45;&gt;I_stockyard -->
<g id="edge16" class="edge"><title>C_livestock&#45;&gt;I_stockyard</title>
<g id="a_edge16"><a xlink:title="Livestock &#45;&gt; Stockyard">
<path fill="none" stroke="black" d="M280.873,-161C300.314,-161 323.051,-161 343.132,-161"/>
<polygon fill="black" stroke="black" points="343.359,-164.5 353.359,-161 343.359,-157.5 343.359,-164.5"/>
</a>
</g>
</g>
<!-- I_stockyard&#45;&gt;C_food -->
<g id="edge42" class="edge"><title>I_stockyard&#45;&gt;C_food</title>
<g id="a_edge42"><a xlink:title="Stockyard &#45;&gt; Food">
<path fill="none" stroke="black" d="M439.948,-166.382C468,-169.946 504.52,-174.586 531.838,-178.057"/>
<polygon fill="black" stroke="black" points="531.458,-181.537 541.82,-179.326 532.341,-174.593 531.458,-181.537"/>
</a>
</g>
</g>
<!-- C_milk -->
<g id="milk" class="node"><title>C_milk</title>
<g id="a_milk"><a xlink:href="cargos.html#milk" xlink:title="Milk" target="_top">
<ellipse fill="none" stroke="black" cx="233.796" cy="-221" rx="27" ry="18"/>
<text text-anchor="middle" x="233.796" y="-217.3" font-family="sans-serif" font-size="14.00">Milk</text>
</a>
</g>
</g>
<!-- I_dairy -->
<g id="dairy" class="node"><title>I_dairy</title>
<g id="a_dairy"><a xlink:href="industries.html#dairy" xlink:title="Dairy" target="_top">
<polygon fill="none" stroke="black" points="425.092,-239 368.092,-239 368.092,-203 425.092,-203 425.092,-239"/>
<text text-anchor="start" x="380.592" y="-216.8" font-family="sans-serif" font-size="14.00">Dairy</text>
</a>
</g>
</g>
<!-- C_milk&#45;&gt;I_dairy -->
<g id="edge17" class="edge"><title>C_milk&#45;&gt;I_dairy</title>
<g id="a_edge17"><a xlink:title="Milk &#45;&gt; Dairy">
<path fill="none" stroke="black" d="M260.988,-221C287.338,-221 328.227,-221 358.027,-221"/>
<polygon fill="black" stroke="black" points="358.063,-224.5 368.063,-221 358.063,-217.5 358.063,-224.5"/>
</a>
</g>
</g>
<!-- I_dairy&#45;&gt;C_food -->
<g id="edge26" class="edge"><title>I_dairy&#45;&gt;C_food</title>
<g id="a_edge26"><a xlink:title="Dairy &#45;&gt; Food">
<path fill="none" stroke="black" d="M425.41,-214.895C454.566,-208.496 500.554,-198.403 532.976,-191.287"/>
<polygon fill="black" stroke="black" points="533.97,-194.653 542.987,-189.09 532.469,-187.815 533.97,-194.653"/>
</a>
</g>
</g>
<!-- C_sand -->
<g id="sand" class="node"><title>C_sand</title>
<g id="a_sand"><a xlink:href="cargos.html#sand" xlink:title="Sand" target="_top">
<ellipse fill="none" stroke="black" cx="931.775" cy="-242" rx="31.6951" ry="18"/>
<text text-anchor="middle" x="931.775" y="-238.3" font-family="sans-serif" font-size="14.00">Sand</text>
</a>
</g>
</g>
<!-- C_sand&#45;&gt;I_glass_works -->
<g id="edge18" class="edge"><title>C_sand&#45;&gt;I_glass_works</title>
<g id="a_edge18"><a xlink:title="Sand &#45;&gt; Glass Works">
<path fill="none" stroke="black" d="M963.893,-242C984.011,-242 1010.84,-242 1034.92,-242"/>
<polygon fill="black" stroke="black" points="1035.05,-245.5 1045.05,-242 1035.05,-238.5 1035.05,-245.5"/>
</a>
</g>
</g>
<!-- C_scrap_metal -->
<g id="scrap_metal" class="node"><title>C_scrap_metal</title>
<g id="a_scrap_metal"><a xlink:href="cargos.html#scrap_metal" xlink:title="Scrap Metal" target="_top">
<ellipse fill="none" stroke="black" cx="571.736" cy="-386" rx="59.2899" ry="18"/>
<text text-anchor="middle" x="571.736" y="-382.3" font-family="sans-serif" font-size="14.00">Scrap Metal</text>
</a>
</g>
</g>
<!-- C_scrap_metal&#45;&gt;I_blast_furnace -->
<g id="edge19" class="edge"><title>C_scrap_metal&#45;&gt;I_blast_furnace</title>
<g id="a_edge19"><a xlink:title="Scrap Metal &#45;&gt; Steel Mill">
<path fill="none" stroke="black" d="M611.594,-399.465C636.901,-408.235 670.121,-419.747 697.187,-429.126"/>
<polygon fill="black" stroke="black" points="696.26,-432.509 706.855,-432.476 698.552,-425.895 696.26,-432.509"/>
</a>
</g>
</g>
<!-- C_steel&#45;&gt;I_metal_workshop -->
<g id="edge20" class="edge"><title>C_steel&#45;&gt;I_metal_workshop</title>
<g id="a_edge20"><a xlink:title="Steel &#45;&gt; Metal Workshop">
<path fill="none" stroke="black" d="M958.378,-413.149C971.584,-407.987 987.616,-400.763 1000.67,-392 1027.8,-373.789 1054.19,-347.329 1071.98,-327.81"/>
<polygon fill="black" stroke="black" points="1074.76,-329.96 1078.83,-320.177 1069.54,-325.287 1074.76,-329.96"/>
</a>
</g>
</g>
<!-- I_clay_pit -->
<g id="clay_pit" class="node"><title>I_clay_pit</title>
<g id="a_clay_pit"><a xlink:href="industries.html#clay_pit" xlink:title="Clay Pit" target="_top">
<polygon fill="none" stroke="black" points="480.592,-328 312.592,-328 312.592,-276 480.592,-276 480.592,-328"/>
<text text-anchor="start" x="373.592" y="-308.8" font-family="sans-serif" font-size="14.00">Clay Pit</text>
<text text-anchor="start" x="324.592" y="-287.8" font-family="sans-serif" font-size="14.00">[Engineering Supplies]</text>
</a>
</g>
</g>
<!-- I_clay_pit&#45;&gt;C_clay -->
<g id="edge24" class="edge"><title>I_clay_pit&#45;&gt;C_clay</title>
<g id="a_edge24"><a xlink:title="Clay Pit &#45;&gt; Clay">
<path fill="none" stroke="black" d="M480.614,-307.754C499.372,-309.054 518.352,-310.369 534.024,-311.456"/>
<polygon fill="black" stroke="black" points="534.085,-314.968 544.303,-312.168 534.569,-307.985 534.085,-314.968"/>
</a>
</g>
</g>
<!-- I_coal_mine -->
<g id="coal_mine" class="node"><title>I_coal_mine</title>
<g id="a_coal_mine"><a xlink:href="industries.html#coal_mine" xlink:title="Coal Mine" target="_top">
<polygon fill="none" stroke="black" points="480.592,-556 312.592,-556 312.592,-504 480.592,-504 480.592,-556"/>
<text text-anchor="start" x="366.092" y="-536.8" font-family="sans-serif" font-size="14.00">Coal Mine</text>
<text text-anchor="start" x="324.592" y="-515.8" font-family="sans-serif" font-size="14.00">[Engineering Supplies]</text>
</a>
</g>
</g>
<!-- I_coal_mine&#45;&gt;C_coal -->
<g id="edge25" class="edge"><title>I_coal_mine&#45;&gt;C_coal</title>
<g id="a_edge25"><a xlink:title="Coal Mine &#45;&gt; Coal">
<path fill="none" stroke="black" d="M480.614,-518.492C499.372,-515.892 518.352,-513.261 534.024,-511.089"/>
<polygon fill="black" stroke="black" points="534.878,-514.504 544.303,-509.664 533.917,-507.57 534.878,-514.504"/>
</a>
</g>
</g>
<!-- I_dairy_farm -->
<g id="dairy_farm" class="node"><title>I_dairy_farm</title>
<g id="a_dairy_farm"><a xlink:href="industries.html#dairy_farm" xlink:title="Dairy Farm" target="_top">
<polygon fill="none" stroke="black" points="139.5,-223 15.5,-223 15.5,-171 139.5,-171 139.5,-223"/>
<text text-anchor="start" x="42.5" y="-203.8" font-family="sans-serif" font-size="14.00">Dairy Farm</text>
<text text-anchor="start" x="27.5" y="-182.8" font-family="sans-serif" font-size="14.00">[Farm Supplies]</text>
</a>
</g>
</g>
<!-- I_dairy_farm&#45;&gt;C_livestock -->
<g id="edge27" class="edge"><title>I_dairy_farm&#45;&gt;C_livestock</title>
<g id="a_edge27"><a xlink:title="Dairy Farm &#45;&gt; Livestock">
<path fill="none" stroke="black" d="M139.925,-182.668C154.397,-179.292 169.64,-175.735 183.498,-172.502"/>
<polygon fill="black" stroke="black" points="184.37,-175.893 193.313,-170.212 182.779,-169.076 184.37,-175.893"/>
</a>
</g>
</g>
<!-- I_dairy_farm&#45;&gt;C_milk -->
<g id="edge28" class="edge"><title>I_dairy_farm&#45;&gt;C_milk</title>
<g id="a_edge28"><a xlink:title="Dairy Farm &#45;&gt; Milk">
<path fill="none" stroke="black" d="M139.925,-206.554C159.412,-209.585 180.296,-212.834 197.315,-215.481"/>
<polygon fill="black" stroke="black" points="196.947,-218.966 207.366,-217.044 198.022,-212.049 196.947,-218.966"/>
</a>
</g>
</g>
<!-- I_dredging_site -->
<g id="dredging_site" class="node"><title>I_dredging_site</title>
<g id="a_dredging_site"><a xlink:href="industries.html#dredging_site" xlink:title="Dredging Site" target="_top">
<polygon fill="none" stroke="black" points="830.881,-272 662.881,-272 662.881,-220 830.881,-220 830.881,-272"/>
<text text-anchor="start" x="703.381" y="-252.8" font-family="sans-serif" font-size="14.00">Dredging Site</text>
<text text-anchor="start" x="674.881" y="-231.8" font-family="sans-serif" font-size="14.00">[Engineering Supplies]</text>
</a>
</g>
</g>
<!-- I_dredging_site&#45;&gt;C_sand -->
<g id="edge29" class="edge"><title>I_dredging_site&#45;&gt;C_sand</title>
<g id="a_edge29"><a xlink:title="Dredging Site &#45;&gt; Sand">
<path fill="none" stroke="black" d="M831.033,-244.181C851.351,-243.737 872.219,-243.281 889.582,-242.901"/>
<polygon fill="black" stroke="black" points="889.982,-246.393 899.903,-242.675 889.829,-239.395 889.982,-246.393"/>
</a>
</g>
</g>
<!-- I_fishing_grounds -->
<g id="fishing_grounds" class="node"><title>I_fishing_grounds</title>
<g id="a_fishing_grounds"><a xlink:href="industries.html#fishing_grounds" xlink:title="Fishing Grounds" target="_top">
<polygon fill="none" stroke="black" points="141,-123 14,-123 14,-87 141,-87 141,-123"/>
<text text-anchor="start" x="26.5" y="-100.8" font-family="sans-serif" font-size="14.00">Fishing Grounds</text>
</a>
</g>
</g>
<!-- I_fishing_grounds&#45;&gt;C_fish -->
<g id="edge30" class="edge"><title>I_fishing_grounds&#45;&gt;C_fish</title>
<g id="a_edge30"><a xlink:title="Fishing Grounds &#45;&gt; Fish">
<path fill="none" stroke="black" d="M141.258,-103.373C160.011,-102.887 179.94,-102.37 196.398,-101.944"/>
<polygon fill="black" stroke="black" points="196.759,-105.435 206.665,-101.677 196.578,-98.4378 196.759,-105.435"/>
</a>
</g>
</g>
<!-- CI_hotel_passengers&#45;&gt;I_hotel -->
<g id="edge34" class="edge"><title>CI_hotel_passengers&#45;&gt;I_hotel</title>
<g id="a_edge34"><a xlink:title="Passengers &#45;&gt; Hotel">
<path fill="none" stroke="black" d="M1490.5,-81.0969C1460.52,-82.4866 1422.81,-82.2724 1395.2,-80.4544"/>
<polygon fill="black" stroke="black" points="1395.4,-76.9588 1385.16,-79.6791 1394.86,-83.9381 1395.4,-76.9588"/>
</a>
</g>
</g>
<!-- I_iron_ore_mine -->
<g id="iron_ore_mine" class="node"><title>I_iron_ore_mine</title>
<g id="a_iron_ore_mine"><a xlink:href="industries.html#iron_ore_mine" xlink:title="Iron Ore Mine" target="_top">
<polygon fill="none" stroke="black" points="480.592,-480 312.592,-480 312.592,-428 480.592,-428 480.592,-480"/>
<text text-anchor="start" x="352.592" y="-460.8" font-family="sans-serif" font-size="14.00">Iron Ore Mine</text>
<text text-anchor="start" x="324.592" y="-439.8" font-family="sans-serif" font-size="14.00">[Engineering Supplies]</text>
</a>
</g>
</g>
<!-- I_iron_ore_mine&#45;&gt;C_iron_ore -->
<g id="edge35" class="edge"><title>I_iron_ore_mine&#45;&gt;C_iron_ore</title>
<g id="a_edge35"><a xlink:title="Iron Ore Mine &#45;&gt; Iron Ore">
<path fill="none" stroke="black" d="M480.614,-450.164C492.708,-449.605 504.894,-449.042 516.227,-448.519"/>
<polygon fill="black" stroke="black" points="516.539,-452.008 526.367,-448.05 516.216,-445.015 516.539,-452.008"/>
</a>
</g>
</g>
<!-- I_orchard_piggery -->
<g id="orchard_piggery" class="node"><title>I_orchard_piggery</title>
<g id="a_orchard_piggery"><a xlink:href="industries.html#orchard_piggery" xlink:title="Orchard and Piggery" target="_top">
<polygon fill="none" stroke="black" points="155,-63 0,-63 0,-11 155,-11 155,-63"/>
<text text-anchor="start" x="12.5" y="-43.8" font-family="sans-serif" font-size="14.00">Orchard and Piggery</text>
<text text-anchor="start" x="28" y="-22.8" font-family="sans-serif" font-size="14.00">[Farm Supplies]</text>
</a>
</g>
</g>
<!-- I_orchard_piggery&#45;&gt;C_fruits -->
<g id="edge37" class="edge"><title>I_orchard_piggery&#45;&gt;C_fruits</title>
<g id="a_edge37"><a xlink:title="Orchard and Piggery &#45;&gt; Fruit">
<path fill="none" stroke="black" d="M155.196,-37C168.767,-37 182.357,-37 194.286,-37"/>
<polygon fill="black" stroke="black" points="194.299,-40.5001 204.299,-37 194.299,-33.5001 194.299,-40.5001"/>
</a>
</g>
</g>
<!-- I_orchard_piggery&#45;&gt;C_livestock -->
<g id="edge38" class="edge"><title>I_orchard_piggery&#45;&gt;C_livestock</title>
<g id="a_edge38"><a xlink:title="Orchard and Piggery &#45;&gt; Livestock">
<path fill="none" stroke="black" d="M139.618,-63.0554C145.124,-66.6458 150.362,-70.6239 155,-75 175.85,-94.6723 167.356,-110.124 187,-131 190.163,-134.362 193.774,-137.527 197.549,-140.45"/>
<polygon fill="black" stroke="black" points="195.79,-143.494 205.966,-146.445 199.851,-137.793 195.79,-143.494"/>
</a>
</g>
</g>
<!-- I_junk_yard -->
<g id="junk_yard" class="node"><title>I_junk_yard</title>
<g id="a_junk_yard"><a xlink:href="industries.html#junk_yard" xlink:title="Scrap Yard" target="_top">
<polygon fill="none" stroke="black" points="480.592,-404 312.592,-404 312.592,-352 480.592,-352 480.592,-404"/>
<text text-anchor="start" x="361.592" y="-384.8" font-family="sans-serif" font-size="14.00">Scrap Yard</text>
<text text-anchor="start" x="324.592" y="-363.8" font-family="sans-serif" font-size="14.00">[Engineering Supplies]</text>
</a>
</g>
</g>
<!-- I_junk_yard&#45;&gt;C_scrap_metal -->
<g id="edge40" class="edge"><title>I_junk_yard&#45;&gt;C_scrap_metal</title>
<g id="a_edge40"><a xlink:title="Scrap Yard &#45;&gt; Scrap Metal">
<path fill="none" stroke="black" d="M480.614,-381.836C488.047,-382.179 495.515,-382.524 502.798,-382.861"/>
<polygon fill="black" stroke="black" points="502.797,-386.365 512.948,-383.33 503.12,-379.372 502.797,-386.365"/>
</a>
</g>
</g>
</g>
</svg>
