<?xml version="1.0" encoding="UTF-8" standalone="no"?>
<?xml-stylesheet href="static/css/cargoflow_styles.css" type="text/css"?>
<!DOCTYPE svg PUBLIC "-//W3C//DTD SVG 1.1//EN"
 "http://www.w3.org/Graphics/SVG/1.1/DTD/svg11.dtd">
<!-- Generated by graphviz version 2.38.0 (20140413.2041)
 -->
<!-- Title: tropic_basic Pages: 1 -->
<svg width="1656pt" height="631pt"
 viewBox="0.00 0.00 1656.24 631.00" xmlns="http://www.w3.org/2000/svg" xmlns:xlink="http://www.w3.org/1999/xlink">
<g id="graph0" class="graph" transform="scale(1 1) rotate(0) translate(4 627)">
<title>tropic_basic</title>
<g id="a_graph0"><a xlink:title="Tropic Basic">
<polygon fill="white" stroke="none" points="-4,4 -4,-627 1652.24,-627 1652.24,4 -4,4"/>
</a>
</g>
<!-- C_alcohol -->
<g id="alcohol" class="node"><title>C_alcohol</title>
<g id="a_alcohol"><a xlink:href="cargos.html#alcohol" xlink:title="Alcohol" target="_top">
<ellipse fill="none" stroke="black" cx="869.978" cy="-258" rx="39.7935" ry="18"/>
<text text-anchor="middle" x="869.978" y="-254.3" font-family="sans-serif" font-size="14.00">Alcohol</text>
</a>
</g>
</g>
<!-- I_bulk_terminal -->
<g id="bulk_terminal" class="node"><title>I_bulk_terminal</title>
<g id="a_bulk_terminal"><a xlink:href="industries.html#bulk_terminal" xlink:title="Bulk Terminal" target="_top">
<polygon fill="none" stroke="black" points="1477.96,-454 1367.96,-454 1367.96,-418 1477.96,-418 1477.96,-454"/>
<text text-anchor="start" x="1379.96" y="-431.8" font-family="sans-serif" font-size="14.00">Bulk Terminal</text>
</a>
</g>
</g>
<!-- C_alcohol&#45;&gt;I_bulk_terminal -->
<g id="edge1" class="edge"><title>C_alcohol&#45;&gt;I_bulk_terminal</title>
<g id="a_edge1"><a xlink:title="Alcohol &#45;&gt; Bulk Terminal">
<path fill="none" stroke="black" d="M897.957,-271.024C904.96,-275.538 911.896,-281.206 916.774,-288 949.718,-333.885 905.013,-375.283 948.774,-411 1009.63,-460.672 1243.05,-450.144 1357.68,-441.593"/>
<polygon fill="black" stroke="black" points="1358.02,-445.077 1367.72,-440.826 1357.49,-438.097 1358.02,-445.077"/>
</a>
</g>
</g>
<!-- I_general_store -->
<g id="general_store" class="node"><title>I_general_store</title>
<g id="a_general_store"><a xlink:href="industries.html#general_store" xlink:title="General Store" target="_top">
<polygon fill="none" stroke="black" points="1478.46,-234 1367.46,-234 1367.46,-198 1478.46,-198 1478.46,-234"/>
<text text-anchor="start" x="1379.96" y="-211.8" font-family="sans-serif" font-size="14.00">General Store</text>
</a>
</g>
</g>
<!-- C_alcohol&#45;&gt;I_general_store -->
<g id="edge2" class="edge"><title>C_alcohol&#45;&gt;I_general_store</title>
<g id="a_edge2"><a xlink:title="Alcohol &#45;&gt; General Store">
<path fill="none" stroke="black" d="M909.284,-255.08C1002.38,-247.983 1241.36,-229.766 1357.15,-220.94"/>
<polygon fill="black" stroke="black" points="1357.58,-224.417 1367.29,-220.167 1357.05,-217.437 1357.58,-224.417"/>
</a>
</g>
</g>
<!-- I_hotel -->
<g id="hotel" class="node"><title>I_hotel</title>
<g id="a_hotel"><a xlink:href="industries.html#hotel" xlink:title="Hotel" target="_top">
<polygon fill="none" stroke="black" points="1451.46,-317 1394.46,-317 1394.46,-281 1451.46,-281 1451.46,-317"/>
<text text-anchor="start" x="1406.96" y="-294.8" font-family="sans-serif" font-size="14.00">Hotel</text>
</a>
</g>
</g>
<!-- C_alcohol&#45;&gt;I_hotel -->
<g id="edge3" class="edge"><title>C_alcohol&#45;&gt;I_hotel</title>
<g id="a_edge3"><a xlink:title="Alcohol &#45;&gt; Hotel">
<path fill="none" stroke="black" d="M909.537,-260.461C989.161,-265.604 1177.53,-278.089 1335.46,-291 1351.46,-292.308 1369.1,-293.911 1384.26,-295.338"/>
<polygon fill="black" stroke="black" points="1384.03,-298.831 1394.31,-296.292 1384.69,-291.863 1384.03,-298.831"/>
</a>
</g>
</g>
<!-- C_farm_supplies -->
<g id="farm_supplies" class="node"><title>C_farm_supplies</title>
<g id="a_farm_supplies"><a xlink:href="cargos.html#farm_supplies" xlink:title="Farm Supplies" target="_top">
<ellipse fill="none" stroke="black" cx="1579.35" cy="-605" rx="68.7879" ry="18"/>
<text text-anchor="middle" x="1579.35" y="-601.3" font-family="sans-serif" font-size="14.00">Farm Supplies</text>
</a>
</g>
</g>
<!-- I_bulk_terminal&#45;&gt;C_farm_supplies -->
<g id="edge23" class="edge"><title>I_bulk_terminal&#45;&gt;C_farm_supplies</title>
<g id="a_edge23"><a xlink:title="Bulk Terminal &#45;&gt; Farm Supplies">
<path fill="none" stroke="black" d="M1440.48,-454.086C1468.13,-484.357 1523.85,-545.348 1555.33,-579.805"/>
<polygon fill="black" stroke="black" points="1553.08,-582.528 1562.41,-587.551 1558.25,-577.807 1553.08,-582.528"/>
</a>
</g>
</g>
<!-- CI_hotel_passengers -->
<g id="passengers" class="node"><title>CI_hotel_passengers</title>
<g id="a_passengers"><a xlink:href="cargos.html#passengers" xlink:title="Passengers" target="_top">
<ellipse fill="none" stroke="black" cx="1579.35" cy="-299" rx="55.7903" ry="18"/>
<text text-anchor="middle" x="1579.35" y="-295.3" font-family="sans-serif" font-size="14.00">Passengers</text>
</a>
</g>
</g>
<!-- I_hotel&#45;&gt;CI_hotel_passengers -->
<g id="edge33" class="edge"><title>I_hotel&#45;&gt;CI_hotel_passengers</title>
<g id="a_edge33"><a xlink:title="Hotel &#45;&gt; Passengers">
<path fill="none" stroke="black" d="M1451.56,-291.912C1470.45,-290.194 1496.21,-289.633 1519.57,-290.232"/>
<polygon fill="black" stroke="black" points="1519.65,-293.736 1529.76,-290.573 1519.88,-286.74 1519.65,-293.736"/>
</a>
</g>
</g>
<!-- C_beans -->
<g id="beans" class="node"><title>C_beans</title>
<g id="a_beans"><a xlink:href="cargos.html#beans" xlink:title="Beans" target="_top">
<ellipse fill="none" stroke="black" cx="869.978" cy="-378" rx="35.194" ry="18"/>
<text text-anchor="middle" x="869.978" y="-374.3" font-family="sans-serif" font-size="14.00">Beans</text>
</a>
</g>
</g>
<!-- I_food_processor -->
<g id="food_processor" class="node"><title>I_food_processor</title>
<g id="a_food_processor"><a xlink:href="industries.html#food_processor" xlink:title="Food Processing Plant" target="_top">
<polygon fill="none" stroke="black" points="1109.77,-339 948.774,-339 948.774,-303 1109.77,-303 1109.77,-339"/>
<text text-anchor="start" x="961.274" y="-316.8" font-family="sans-serif" font-size="14.00">Food Processing Plant</text>
</a>
</g>
</g>
<!-- C_beans&#45;&gt;I_food_processor -->
<g id="edge4" class="edge"><title>C_beans&#45;&gt;I_food_processor</title>
<g id="a_edge4"><a xlink:title="Beans &#45;&gt; Food Processing Plant">
<path fill="none" stroke="black" d="M899.099,-367.81C918.438,-360.802 944.845,-351.232 968.745,-342.572"/>
<polygon fill="black" stroke="black" points="970.246,-345.751 978.456,-339.053 967.861,-339.169 970.246,-345.751"/>
</a>
</g>
</g>
<!-- C_food -->
<g id="food" class="node"><title>C_food</title>
<g id="a_food"><a xlink:href="cargos.html#food" xlink:title="Food" target="_top">
<ellipse fill="none" stroke="black" cx="1238.62" cy="-321" rx="30.5947" ry="18"/>
<text text-anchor="middle" x="1238.62" y="-317.3" font-family="sans-serif" font-size="14.00">Food</text>
</a>
</g>
</g>
<!-- I_food_processor&#45;&gt;C_food -->
<g id="edge32" class="edge"><title>I_food_processor&#45;&gt;C_food</title>
<g id="a_edge32"><a xlink:title="Food Processing Plant &#45;&gt; Food">
<path fill="none" stroke="black" d="M1109.84,-321C1139.92,-321 1172.87,-321 1197.77,-321"/>
<polygon fill="black" stroke="black" points="1197.92,-324.5 1207.92,-321 1197.92,-317.5 1197.92,-324.5"/>
</a>
</g>
</g>
<!-- C_chemicals -->
<g id="chemicals" class="node"><title>C_chemicals</title>
<g id="a_chemicals"><a xlink:href="cargos.html#chemicals" xlink:title="Chemicals" target="_top">
<ellipse fill="none" stroke="black" cx="574.337" cy="-550" rx="51.1914" ry="18"/>
<text text-anchor="middle" x="574.337" y="-546.3" font-family="sans-serif" font-size="14.00">Chemicals</text>
</a>
</g>
</g>
<!-- C_chemicals&#45;&gt;I_bulk_terminal -->
<g id="edge5" class="edge"><title>C_chemicals&#45;&gt;I_bulk_terminal</title>
<g id="a_edge5"><a xlink:title="Chemicals &#45;&gt; Bulk Terminal">
<path fill="none" stroke="black" d="M625.737,-550.828C684.227,-551.716 783.583,-553 868.978,-553 868.978,-553 868.978,-553 1030.27,-553 1161.02,-553 1306.43,-492.407 1377.69,-458.432"/>
<polygon fill="black" stroke="black" points="1379.34,-461.52 1386.83,-454.025 1376.3,-455.215 1379.34,-461.52"/>
</a>
</g>
</g>
<!-- I_copper_refinery -->
<g id="copper_refinery" class="node"><title>I_copper_refinery</title>
<g id="a_copper_refinery"><a xlink:href="industries.html#copper_refinery" xlink:title="Copper Refinery" target="_top">
<polygon fill="none" stroke="black" points="790.682,-88 664.682,-88 664.682,-52 790.682,-52 790.682,-88"/>
<text text-anchor="start" x="676.682" y="-65.8" font-family="sans-serif" font-size="14.00">Copper Refinery</text>
</a>
</g>
</g>
<!-- C_chemicals&#45;&gt;I_copper_refinery -->
<g id="edge6" class="edge"><title>C_chemicals&#45;&gt;I_copper_refinery</title>
<g id="a_edge6"><a xlink:title="Chemicals &#45;&gt; Copper Refinery">
<path fill="none" stroke="black" d="M576.758,-531.993C582.991,-456.968 610.05,-169.878 664.182,-100 665.62,-98.1446 667.201,-96.3978 668.895,-94.7538"/>
<polygon fill="black" stroke="black" points="671.414,-97.2157 676.957,-88.1863 666.993,-91.7886 671.414,-97.2157"/>
</a>
</g>
</g>
<!-- C_copper -->
<g id="copper" class="node"><title>C_copper</title>
<g id="a_copper"><a xlink:href="cargos.html#copper" xlink:title="Copper" target="_top">
<ellipse fill="none" stroke="black" cx="869.978" cy="-18" rx="40.0939" ry="18"/>
<text text-anchor="middle" x="869.978" y="-14.3" font-family="sans-serif" font-size="14.00">Copper</text>
</a>
</g>
</g>
<!-- I_copper_refinery&#45;&gt;C_copper -->
<g id="edge28" class="edge"><title>I_copper_refinery&#45;&gt;C_copper</title>
<g id="a_edge28"><a xlink:title="Copper Refinery &#45;&gt; Copper">
<path fill="none" stroke="black" d="M777.357,-51.9589C794.135,-45.7401 812.727,-38.8491 828.754,-32.9087"/>
<polygon fill="black" stroke="black" points="830.203,-36.1047 838.363,-29.3474 827.77,-29.541 830.203,-36.1047"/>
</a>
</g>
</g>
<!-- C_coffee -->
<g id="coffee" class="node"><title>C_coffee</title>
<g id="a_coffee"><a xlink:href="cargos.html#coffee" xlink:title="Coffee" target="_top">
<ellipse fill="none" stroke="black" cx="869.978" cy="-198" rx="36.2938" ry="18"/>
<text text-anchor="middle" x="869.978" y="-194.3" font-family="sans-serif" font-size="14.00">Coffee</text>
</a>
</g>
</g>
<!-- I_port -->
<g id="port" class="node"><title>I_port</title>
<g id="a_port"><a xlink:href="industries.html#port" xlink:title="Port" target="_top">
<polygon fill="none" stroke="black" points="1056.27,-96 1002.27,-96 1002.27,-60 1056.27,-60 1056.27,-96"/>
<text text-anchor="start" x="1017.27" y="-73.8" font-family="sans-serif" font-size="14.00">Port</text>
</a>
</g>
</g>
<!-- C_coffee&#45;&gt;I_port -->
<g id="edge7" class="edge"><title>C_coffee&#45;&gt;I_port</title>
<g id="a_edge7"><a xlink:title="Coffee &#45;&gt; Port">
<path fill="none" stroke="black" d="M895.201,-184.759C902.609,-180.046 910.461,-174.322 916.774,-168 935.153,-149.595 929.465,-136.427 948.774,-119 961.541,-107.478 978.139,-98.2516 992.865,-91.4916"/>
<polygon fill="black" stroke="black" points="994.451,-94.6181 1002.21,-87.406 991.647,-88.204 994.451,-94.6181"/>
</a>
</g>
</g>
<!-- C_engineering_supplies -->
<g id="engineering_supplies" class="node"><title>C_engineering_supplies</title>
<g id="a_engineering_supplies"><a xlink:href="cargos.html#engineering_supplies" xlink:title="Engineering Supplies" target="_top">
<ellipse fill="none" stroke="black" cx="1238.62" cy="-78" rx="96.6831" ry="18"/>
<text text-anchor="middle" x="1238.62" y="-74.3" font-family="sans-serif" font-size="14.00">Engineering Supplies</text>
</a>
</g>
</g>
<!-- I_port&#45;&gt;C_engineering_supplies -->
<g id="edge38" class="edge"><title>I_port&#45;&gt;C_engineering_supplies</title>
<g id="a_edge38"><a xlink:title="Port &#45;&gt; Engineering Supplies">
<path fill="none" stroke="black" d="M1056.53,-78C1075.85,-78 1103.49,-78 1131.38,-78"/>
<polygon fill="black" stroke="black" points="1131.65,-81.5001 1141.65,-78 1131.65,-74.5001 1131.65,-81.5001"/>
</a>
</g>
</g>
<!-- C_goods -->
<g id="goods" class="node"><title>C_goods</title>
<g id="a_goods"><a xlink:href="cargos.html#goods" xlink:title="Goods" target="_top">
<ellipse fill="none" stroke="black" cx="1238.62" cy="-161" rx="36.2938" ry="18"/>
<text text-anchor="middle" x="1238.62" y="-157.3" font-family="sans-serif" font-size="14.00">Goods</text>
</a>
</g>
</g>
<!-- I_port&#45;&gt;C_goods -->
<g id="edge39" class="edge"><title>I_port&#45;&gt;C_goods</title>
<g id="a_edge39"><a xlink:title="Port &#45;&gt; Goods">
<path fill="none" stroke="black" d="M1056.53,-88.512C1092.95,-103.091 1158.98,-129.523 1200.45,-146.122"/>
<polygon fill="black" stroke="black" points="1199.33,-149.446 1209.92,-149.913 1201.94,-142.947 1199.33,-149.446"/>
</a>
</g>
</g>
<!-- C_copper&#45;&gt;I_port -->
<g id="edge8" class="edge"><title>C_copper&#45;&gt;I_port</title>
<g id="a_edge8"><a xlink:title="Copper &#45;&gt; Port">
<path fill="none" stroke="black" d="M901.306,-29.5686C927.386,-39.5164 965.038,-53.8788 992.567,-64.3798"/>
<polygon fill="black" stroke="black" points="991.621,-67.7647 1002.21,-68.0586 994.116,-61.2243 991.621,-67.7647"/>
</a>
</g>
</g>
<!-- C_copper_ore -->
<g id="copper_ore" class="node"><title>C_copper_ore</title>
<g id="a_copper_ore"><a xlink:href="cargos.html#copper_ore" xlink:title="Copper Ore" target="_top">
<ellipse fill="none" stroke="black" cx="574.337" cy="-70" rx="57.6901" ry="18"/>
<text text-anchor="middle" x="574.337" y="-66.3" font-family="sans-serif" font-size="14.00">Copper Ore</text>
</a>
</g>
</g>
<!-- C_copper_ore&#45;&gt;I_copper_refinery -->
<g id="edge9" class="edge"><title>C_copper_ore&#45;&gt;I_copper_refinery</title>
<g id="a_edge9"><a xlink:title="Copper Ore &#45;&gt; Copper Refinery">
<path fill="none" stroke="black" d="M632.554,-70C639.748,-70 647.179,-70 654.564,-70"/>
<polygon fill="black" stroke="black" points="654.58,-73.5001 664.58,-70 654.58,-66.5001 654.58,-73.5001"/>
</a>
</g>
</g>
<!-- C_fish -->
<g id="fish" class="node"><title>C_fish</title>
<g id="a_fish"><a xlink:href="cargos.html#fish" xlink:title="Fish" target="_top">
<ellipse fill="none" stroke="black" cx="869.978" cy="-498" rx="27" ry="18"/>
<text text-anchor="middle" x="869.978" y="-494.3" font-family="sans-serif" font-size="14.00">Fish</text>
</a>
</g>
</g>
<!-- I_fishing_harbour -->
<g id="fishing_harbour" class="node"><title>I_fishing_harbour</title>
<g id="a_fishing_harbour"><a xlink:href="industries.html#fishing_harbour" xlink:title="Fishing Harbour" target="_top">
<polygon fill="none" stroke="black" points="1091.77,-511 966.774,-511 966.774,-475 1091.77,-475 1091.77,-511"/>
<text text-anchor="start" x="979.274" y="-488.8" font-family="sans-serif" font-size="14.00">Fishing Harbour</text>
</a>
</g>
</g>
<!-- C_fish&#45;&gt;I_fishing_harbour -->
<g id="edge10" class="edge"><title>C_fish&#45;&gt;I_fishing_harbour</title>
<g id="a_edge10"><a xlink:title="Fish &#45;&gt; Fishing Harbour">
<path fill="none" stroke="black" d="M896.952,-497.174C913.299,-496.655 935.263,-495.957 956.547,-495.28"/>
<polygon fill="black" stroke="black" points="956.699,-498.777 966.583,-494.961 956.476,-491.781 956.699,-498.777"/>
</a>
</g>
</g>
<!-- I_fishing_harbour&#45;&gt;C_food -->
<g id="edge30" class="edge"><title>I_fishing_harbour&#45;&gt;C_food</title>
<g id="a_edge30"><a xlink:title="Fishing Harbour &#45;&gt; Food">
<path fill="none" stroke="black" d="M1052.07,-474.918C1090.69,-442.884 1170.92,-376.33 1212.06,-342.196"/>
<polygon fill="black" stroke="black" points="1214.52,-344.703 1219.99,-335.625 1210.05,-339.315 1214.52,-344.703"/>
</a>
</g>
</g>
<!-- C_food&#45;&gt;I_bulk_terminal -->
<g id="edge11" class="edge"><title>C_food&#45;&gt;I_bulk_terminal</title>
<g id="a_edge11"><a xlink:title="Food &#45;&gt; Bulk Terminal">
<path fill="none" stroke="black" d="M1260.18,-333.968C1290.36,-353.002 1347.13,-388.809 1384.75,-412.536"/>
<polygon fill="black" stroke="black" points="1383.08,-415.621 1393.41,-417.995 1386.82,-409.7 1383.08,-415.621"/>
</a>
</g>
</g>
<!-- C_food&#45;&gt;I_general_store -->
<g id="edge12" class="edge"><title>C_food&#45;&gt;I_general_store</title>
<g id="a_edge12"><a xlink:title="Food &#45;&gt; General Store">
<path fill="none" stroke="black" d="M1261.25,-308.543C1290.82,-291.516 1344.41,-260.654 1381.53,-239.278"/>
<polygon fill="black" stroke="black" points="1383.67,-242.085 1390.59,-234.061 1380.18,-236.019 1383.67,-242.085"/>
</a>
</g>
</g>
<!-- C_food&#45;&gt;I_hotel -->
<g id="edge13" class="edge"><title>C_food&#45;&gt;I_hotel</title>
<g id="a_edge13"><a xlink:title="Food &#45;&gt; Hotel">
<path fill="none" stroke="black" d="M1268.91,-317.465C1300.2,-313.69 1349.91,-307.692 1384.14,-303.563"/>
<polygon fill="black" stroke="black" points="1384.72,-307.018 1394.23,-302.346 1383.88,-300.069 1384.72,-307.018"/>
</a>
</g>
</g>
<!-- C_fruits -->
<g id="fruits" class="node"><title>C_fruits</title>
<g id="a_fruits"><a xlink:href="cargos.html#fruits" xlink:title="Fruit" target="_top">
<ellipse fill="none" stroke="black" cx="869.978" cy="-318" rx="29.4969" ry="18"/>
<text text-anchor="middle" x="869.978" y="-314.3" font-family="sans-serif" font-size="14.00">Fruit</text>
</a>
</g>
</g>
<!-- C_fruits&#45;&gt;I_food_processor -->
<g id="edge14" class="edge"><title>C_fruits&#45;&gt;I_food_processor</title>
<g id="a_edge14"><a xlink:title="Fruit &#45;&gt; Food Processing Plant">
<path fill="none" stroke="black" d="M899.463,-318.543C910.719,-318.758 924.328,-319.018 938.427,-319.286"/>
<polygon fill="black" stroke="black" points="938.688,-322.792 948.753,-319.483 938.822,-315.793 938.688,-322.792"/>
</a>
</g>
</g>
<!-- C_goods&#45;&gt;I_general_store -->
<g id="edge15" class="edge"><title>C_goods&#45;&gt;I_general_store</title>
<g id="a_edge15"><a xlink:title="Goods &#45;&gt; General Store">
<path fill="none" stroke="black" d="M1270.14,-170.206C1293.91,-177.377 1327.75,-187.585 1357.45,-196.544"/>
<polygon fill="black" stroke="black" points="1356.76,-199.991 1367.35,-199.528 1358.78,-193.289 1356.76,-199.991"/>
</a>
</g>
</g>
<!-- C_grain -->
<g id="grain" class="node"><title>C_grain</title>
<g id="a_grain"><a xlink:href="cargos.html#grain" xlink:title="Grain" target="_top">
<ellipse fill="none" stroke="black" cx="869.978" cy="-438" rx="32.4942" ry="18"/>
<text text-anchor="middle" x="869.978" y="-434.3" font-family="sans-serif" font-size="14.00">Grain</text>
</a>
</g>
</g>
<!-- I_flour_mill -->
<g id="flour_mill" class="node"><title>I_flour_mill</title>
<g id="a_flour_mill"><a xlink:href="industries.html#flour_mill" xlink:title="Flour Mill" target="_top">
<polygon fill="none" stroke="black" points="1069.77,-399 988.774,-399 988.774,-363 1069.77,-363 1069.77,-399"/>
<text text-anchor="start" x="1001.27" y="-376.8" font-family="sans-serif" font-size="14.00">Flour Mill</text>
</a>
</g>
</g>
<!-- C_grain&#45;&gt;I_flour_mill -->
<g id="edge16" class="edge"><title>C_grain&#45;&gt;I_flour_mill</title>
<g id="a_edge16"><a xlink:title="Grain &#45;&gt; Flour Mill">
<path fill="none" stroke="black" d="M897.661,-428.331C919.909,-420.269 952.2,-408.567 979.107,-398.817"/>
<polygon fill="black" stroke="black" points="980.539,-402.021 988.748,-395.323 978.154,-395.44 980.539,-402.021"/>
</a>
</g>
</g>
<!-- I_flour_mill&#45;&gt;C_food -->
<g id="edge31" class="edge"><title>I_flour_mill&#45;&gt;C_food</title>
<g id="a_edge31"><a xlink:title="Flour Mill &#45;&gt; Food">
<path fill="none" stroke="black" d="M1070.25,-369.431C1108.11,-358.475 1164.48,-342.163 1201.15,-331.553"/>
<polygon fill="black" stroke="black" points="1202.3,-334.863 1210.93,-328.721 1200.35,-328.139 1202.3,-334.863"/>
</a>
</g>
</g>
<!-- C_livestock -->
<g id="livestock" class="node"><title>C_livestock</title>
<g id="a_livestock"><a xlink:href="cargos.html#livestock" xlink:title="Livestock" target="_top">
<ellipse fill="none" stroke="black" cx="869.978" cy="-138" rx="46.5926" ry="18"/>
<text text-anchor="middle" x="869.978" y="-134.3" font-family="sans-serif" font-size="14.00">Livestock</text>
</a>
</g>
</g>
<!-- I_stockyard -->
<g id="stockyard" class="node"><title>I_stockyard</title>
<g id="a_stockyard"><a xlink:href="industries.html#stockyard" xlink:title="Stockyard" target="_top">
<polygon fill="none" stroke="black" points="1072.27,-167 986.274,-167 986.274,-131 1072.27,-131 1072.27,-167"/>
<text text-anchor="start" x="998.274" y="-144.8" font-family="sans-serif" font-size="14.00">Stockyard</text>
</a>
</g>
</g>
<!-- C_livestock&#45;&gt;I_stockyard -->
<g id="edge17" class="edge"><title>C_livestock&#45;&gt;I_stockyard</title>
<g id="a_edge17"><a xlink:title="Livestock &#45;&gt; Stockyard">
<path fill="none" stroke="black" d="M916.053,-141.152C934.752,-142.46 956.569,-143.986 975.968,-145.342"/>
<polygon fill="black" stroke="black" points="975.941,-148.849 986.161,-146.055 976.43,-141.866 975.941,-148.849"/>
</a>
</g>
</g>
<!-- I_stockyard&#45;&gt;C_food -->
<g id="edge42" class="edge"><title>I_stockyard&#45;&gt;C_food</title>
<g id="a_edge42"><a xlink:title="Stockyard &#45;&gt; Food">
<path fill="none" stroke="black" d="M1052.07,-167.082C1090.69,-199.116 1170.92,-265.67 1212.06,-299.804"/>
<polygon fill="black" stroke="black" points="1210.05,-302.685 1219.99,-306.375 1214.52,-297.297 1210.05,-302.685"/>
</a>
</g>
</g>
<!-- C_nitrates -->
<g id="nitrates" class="node"><title>C_nitrates</title>
<g id="a_nitrates"><a xlink:href="cargos.html#nitrates" xlink:title="Nitrates" target="_top">
<ellipse fill="none" stroke="black" cx="242.246" cy="-550" rx="42.4939" ry="18"/>
<text text-anchor="middle" x="242.246" y="-546.3" font-family="sans-serif" font-size="14.00">Nitrates</text>
</a>
</g>
</g>
<!-- I_chemical_plant -->
<g id="chemical_plant" class="node"><title>I_chemical_plant</title>
<g id="a_chemical_plant"><a xlink:href="industries.html#chemical_plant" xlink:title="Chemical Plant" target="_top">
<polygon fill="none" stroke="black" points="458.493,-568 342.493,-568 342.493,-532 458.493,-532 458.493,-568"/>
<text text-anchor="start" x="354.493" y="-545.8" font-family="sans-serif" font-size="14.00">Chemical Plant</text>
</a>
</g>
</g>
<!-- C_nitrates&#45;&gt;I_chemical_plant -->
<g id="edge18" class="edge"><title>C_nitrates&#45;&gt;I_chemical_plant</title>
<g id="a_edge18"><a xlink:title="Nitrates &#45;&gt; Chemical Plant">
<path fill="none" stroke="black" d="M284.707,-550C299.169,-550 315.798,-550 331.829,-550"/>
<polygon fill="black" stroke="black" points="332.249,-553.5 342.249,-550 332.249,-546.5 332.249,-553.5"/>
</a>
</g>
</g>
<!-- I_chemical_plant&#45;&gt;C_chemicals -->
<g id="edge24" class="edge"><title>I_chemical_plant&#45;&gt;C_chemicals</title>
<g id="a_edge24"><a xlink:title="Chemical Plant &#45;&gt; Chemicals">
<path fill="none" stroke="black" d="M458.714,-550C476.017,-550 495.075,-550 512.599,-550"/>
<polygon fill="black" stroke="black" points="512.715,-553.5 522.715,-550 512.715,-546.5 512.715,-553.5"/>
</a>
</g>
</g>
<!-- C_oil -->
<g id="oil" class="node"><title>C_oil</title>
<g id="a_oil"><a xlink:href="cargos.html#oil" xlink:title="Oil" target="_top">
<ellipse fill="none" stroke="black" cx="242.246" cy="-490" rx="27" ry="18"/>
<text text-anchor="middle" x="242.246" y="-486.3" font-family="sans-serif" font-size="14.00">Oil</text>
</a>
</g>
</g>
<!-- C_oil&#45;&gt;I_chemical_plant -->
<g id="edge19" class="edge"><title>C_oil&#45;&gt;I_chemical_plant</title>
<g id="a_edge19"><a xlink:title="Oil &#45;&gt; Chemical Plant">
<path fill="none" stroke="black" d="M265.966,-498.725C286.092,-506.453 316.327,-518.064 342.938,-528.283"/>
<polygon fill="black" stroke="black" points="341.963,-531.657 352.553,-531.975 344.472,-525.123 341.963,-531.657"/>
</a>
</g>
</g>
<!-- C_wool -->
<g id="wool" class="node"><title>C_wool</title>
<g id="a_wool"><a xlink:href="cargos.html#wool" xlink:title="Wool" target="_top">
<ellipse fill="none" stroke="black" cx="869.978" cy="-78" rx="30.5947" ry="18"/>
<text text-anchor="middle" x="869.978" y="-74.3" font-family="sans-serif" font-size="14.00">Wool</text>
</a>
</g>
</g>
<!-- C_wool&#45;&gt;I_port -->
<g id="edge20" class="edge"><title>C_wool&#45;&gt;I_port</title>
<g id="a_edge20"><a xlink:title="Wool &#45;&gt; Port">
<path fill="none" stroke="black" d="M900.564,-78C926.526,-78 964.365,-78 992.116,-78"/>
<polygon fill="black" stroke="black" points="992.213,-81.5001 1002.21,-78 992.213,-74.5001 992.213,-81.5001"/>
</a>
</g>
</g>
<!-- I_arable_farm -->
<g id="arable_farm" class="node"><title>I_arable_farm</title>
<g id="a_arable_farm"><a xlink:href="industries.html#arable_farm" xlink:title="Arable Farm" target="_top">
<polygon fill="none" stroke="black" points="789.682,-438 665.682,-438 665.682,-386 789.682,-386 789.682,-438"/>
<text text-anchor="start" x="689.182" y="-418.8" font-family="sans-serif" font-size="14.00">Arable Farm</text>
<text text-anchor="start" x="677.682" y="-397.8" font-family="sans-serif" font-size="14.00">[Farm Supplies]</text>
</a>
</g>
</g>
<!-- I_arable_farm&#45;&gt;C_beans -->
<g id="edge21" class="edge"><title>I_arable_farm&#45;&gt;C_beans</title>
<g id="a_edge21"><a xlink:title="Arable Farm &#45;&gt; Beans">
<path fill="none" stroke="black" d="M789.81,-397.186C802.603,-394.086 815.803,-390.887 827.67,-388.011"/>
<polygon fill="black" stroke="black" points="828.817,-391.334 837.711,-385.577 827.168,-384.531 828.817,-391.334"/>
</a>
</g>
</g>
<!-- I_arable_farm&#45;&gt;C_grain -->
<g id="edge22" class="edge"><title>I_arable_farm&#45;&gt;C_grain</title>
<g id="a_edge22"><a xlink:title="Arable Farm &#45;&gt; Grain">
<path fill="none" stroke="black" d="M789.81,-423.328C803.078,-425.787 816.784,-428.327 828.987,-430.589"/>
<polygon fill="black" stroke="black" points="828.37,-434.034 838.841,-432.415 829.646,-427.151 828.37,-434.034"/>
</a>
</g>
</g>
<!-- I_coffee_estate -->
<g id="coffee_estate" class="node"><title>I_coffee_estate</title>
<g id="a_coffee_estate"><a xlink:href="industries.html#coffee_estate" xlink:title="Coffee Estate" target="_top">
<polygon fill="none" stroke="black" points="789.682,-247 665.682,-247 665.682,-195 789.682,-195 789.682,-247"/>
<text text-anchor="start" x="686.182" y="-227.8" font-family="sans-serif" font-size="14.00">Coffee Estate</text>
<text text-anchor="start" x="677.682" y="-206.8" font-family="sans-serif" font-size="14.00">[Farm Supplies]</text>
</a>
</g>
</g>
<!-- I_coffee_estate&#45;&gt;C_coffee -->
<g id="edge25" class="edge"><title>I_coffee_estate&#45;&gt;C_coffee</title>
<g id="a_edge25"><a xlink:title="Coffee Estate &#45;&gt; Coffee">
<path fill="none" stroke="black" d="M789.81,-210.979C801.682,-209.032 813.905,-207.029 825.088,-205.195"/>
<polygon fill="black" stroke="black" points="825.723,-208.638 835.025,-203.566 824.59,-201.73 825.723,-208.638"/>
</a>
</g>
</g>
<!-- I_coffee_estate&#45;&gt;C_fruits -->
<g id="edge26" class="edge"><title>I_coffee_estate&#45;&gt;C_fruits</title>
<g id="a_edge26"><a xlink:title="Coffee Estate &#45;&gt; Fruit">
<path fill="none" stroke="black" d="M764.812,-247.085C782.33,-259.612 803.74,-274.746 823.182,-288 828.645,-291.724 834.521,-295.64 840.181,-299.367"/>
<polygon fill="black" stroke="black" points="838.526,-302.467 848.809,-305.016 842.36,-296.61 838.526,-302.467"/>
</a>
</g>
</g>
<!-- I_copper_mine -->
<g id="copper_mine" class="node"><title>I_copper_mine</title>
<g id="a_copper_mine"><a xlink:href="industries.html#copper_mine" xlink:title="Copper Mine" target="_top">
<polygon fill="none" stroke="black" points="484.493,-96 316.493,-96 316.493,-44 484.493,-44 484.493,-96"/>
<text text-anchor="start" x="360.493" y="-76.8" font-family="sans-serif" font-size="14.00">Copper Mine</text>
<text text-anchor="start" x="328.493" y="-55.8" font-family="sans-serif" font-size="14.00">[Engineering Supplies]</text>
</a>
</g>
</g>
<!-- I_copper_mine&#45;&gt;C_copper_ore -->
<g id="edge27" class="edge"><title>I_copper_mine&#45;&gt;C_copper_ore</title>
<g id="a_edge27"><a xlink:title="Copper Mine &#45;&gt; Copper Ore">
<path fill="none" stroke="black" d="M484.646,-70C491.784,-70 498.947,-70 505.938,-70"/>
<polygon fill="black" stroke="black" points="506.035,-73.5001 516.035,-70 506.035,-66.5001 506.035,-73.5001"/>
</a>
</g>
</g>
<!-- I_fishing_grounds -->
<g id="fishing_grounds" class="node"><title>I_fishing_grounds</title>
<g id="a_fishing_grounds"><a xlink:href="industries.html#fishing_grounds" xlink:title="Fishing Grounds" target="_top">
<polygon fill="none" stroke="black" points="791.182,-516 664.182,-516 664.182,-480 791.182,-480 791.182,-516"/>
<text text-anchor="start" x="676.682" y="-493.8" font-family="sans-serif" font-size="14.00">Fishing Grounds</text>
</a>
</g>
</g>
<!-- I_fishing_grounds&#45;&gt;C_fish -->
<g id="edge29" class="edge"><title>I_fishing_grounds&#45;&gt;C_fish</title>
<g id="a_edge29"><a xlink:title="Fishing Grounds &#45;&gt; Fish">
<path fill="none" stroke="black" d="M791.444,-498C805.58,-498 820.12,-498 832.734,-498"/>
<polygon fill="black" stroke="black" points="832.826,-501.5 842.826,-498 832.826,-494.5 832.826,-501.5"/>
</a>
</g>
</g>
<!-- CI_hotel_passengers&#45;&gt;I_hotel -->
<g id="edge34" class="edge"><title>CI_hotel_passengers&#45;&gt;I_hotel</title>
<g id="a_edge34"><a xlink:title="Passengers &#45;&gt; Hotel">
<path fill="none" stroke="black" d="M1529.76,-307.427C1507.81,-308.347 1482.26,-308.16 1461.77,-306.865"/>
<polygon fill="black" stroke="black" points="1461.8,-303.358 1451.56,-306.088 1461.26,-310.337 1461.8,-303.358"/>
</a>
</g>
</g>
<!-- I_nitrate_mine -->
<g id="nitrate_mine" class="node"><title>I_nitrate_mine</title>
<g id="a_nitrate_mine"><a xlink:href="industries.html#nitrate_mine" xlink:title="Nitrate Mine" target="_top">
<polygon fill="none" stroke="black" points="168,-611 0,-611 0,-559 168,-559 168,-611"/>
<text text-anchor="start" x="45.5" y="-591.8" font-family="sans-serif" font-size="14.00">Nitrate Mine</text>
<text text-anchor="start" x="12" y="-570.8" font-family="sans-serif" font-size="14.00">[Engineering Supplies]</text>
</a>
</g>
</g>
<!-- I_nitrate_mine&#45;&gt;C_farm_supplies -->
<g id="edge35" class="edge"><title>I_nitrate_mine&#45;&gt;C_farm_supplies</title>
<g id="a_edge35"><a xlink:title="Nitrate Mine &#45;&gt; Farm Supplies">
<path fill="none" stroke="black" d="M168.008,-593.164C231.362,-598.694 320.847,-605 399.493,-605 399.493,-605 399.493,-605 1239.62,-605 1328.83,-605 1431.27,-605 1499.93,-605"/>
<polygon fill="black" stroke="black" points="1500.23,-608.5 1510.23,-605 1500.23,-601.5 1500.23,-608.5"/>
</a>
</g>
</g>
<!-- I_nitrate_mine&#45;&gt;C_nitrates -->
<g id="edge36" class="edge"><title>I_nitrate_mine&#45;&gt;C_nitrates</title>
<g id="a_edge36"><a xlink:title="Nitrate Mine &#45;&gt; Nitrates">
<path fill="none" stroke="black" d="M168.155,-566.373C177.171,-564.353 186.096,-562.354 194.449,-560.483"/>
<polygon fill="black" stroke="black" points="195.329,-563.873 204.322,-558.271 193.798,-557.042 195.329,-563.873"/>
</a>
</g>
</g>
<!-- I_oil_wells -->
<g id="oil_wells" class="node"><title>I_oil_wells</title>
<g id="a_oil_wells"><a xlink:href="industries.html#oil_wells" xlink:title="Oil Wells" target="_top">
<polygon fill="none" stroke="black" points="168,-516 0,-516 0,-464 168,-464 168,-516"/>
<text text-anchor="start" x="57.5" y="-496.8" font-family="sans-serif" font-size="14.00">Oil Wells</text>
<text text-anchor="start" x="12" y="-475.8" font-family="sans-serif" font-size="14.00">[Engineering Supplies]</text>
</a>
</g>
</g>
<!-- I_oil_wells&#45;&gt;C_oil -->
<g id="edge37" class="edge"><title>I_oil_wells&#45;&gt;C_oil</title>
<g id="a_edge37"><a xlink:title="Oil Wells &#45;&gt; Oil">
<path fill="none" stroke="black" d="M168.155,-490C181.079,-490 193.818,-490 204.95,-490"/>
<polygon fill="black" stroke="black" points="205.085,-493.5 215.085,-490 205.084,-486.5 205.085,-493.5"/>
</a>
</g>
</g>
<!-- I_ranch -->
<g id="ranch" class="node"><title>I_ranch</title>
<g id="a_ranch"><a xlink:href="industries.html#ranch" xlink:title="Ranch" target="_top">
<polygon fill="none" stroke="black" points="789.682,-164 665.682,-164 665.682,-112 789.682,-112 789.682,-164"/>
<text text-anchor="start" x="707.682" y="-144.8" font-family="sans-serif" font-size="14.00">Ranch</text>
<text text-anchor="start" x="677.682" y="-123.8" font-family="sans-serif" font-size="14.00">[Farm Supplies]</text>
</a>
</g>
</g>
<!-- I_ranch&#45;&gt;C_livestock -->
<g id="edge40" class="edge"><title>I_ranch&#45;&gt;C_livestock</title>
<g id="a_edge40"><a xlink:title="Ranch &#45;&gt; Livestock">
<path fill="none" stroke="black" d="M789.81,-138C797.425,-138 805.184,-138 812.72,-138"/>
<polygon fill="black" stroke="black" points="812.824,-141.5 822.824,-138 812.824,-134.5 812.824,-141.5"/>
</a>
</g>
</g>
<!-- I_ranch&#45;&gt;C_wool -->
<g id="edge41" class="edge"><title>I_ranch&#45;&gt;C_wool</title>
<g id="a_edge41"><a xlink:title="Ranch &#45;&gt; Wool">
<path fill="none" stroke="black" d="M789.81,-111.858C805.378,-105.2 821.548,-98.2842 835.186,-92.452"/>
<polygon fill="black" stroke="black" points="836.805,-95.5662 844.623,-88.4159 834.052,-89.13 836.805,-95.5662"/>
</a>
</g>
</g>
<!-- I_vineyard -->
<g id="vineyard" class="node"><title>I_vineyard</title>
<g id="a_vineyard"><a xlink:href="industries.html#vineyard" xlink:title="Vineyard" target="_top">
<polygon fill="none" stroke="black" points="789.682,-337 665.682,-337 665.682,-285 789.682,-285 789.682,-337"/>
<text text-anchor="start" x="700.182" y="-317.8" font-family="sans-serif" font-size="14.00">Vineyard</text>
<text text-anchor="start" x="677.682" y="-296.8" font-family="sans-serif" font-size="14.00">[Farm Supplies]</text>
</a>
</g>
</g>
<!-- I_vineyard&#45;&gt;C_alcohol -->
<g id="edge43" class="edge"><title>I_vineyard&#45;&gt;C_alcohol</title>
<g id="a_edge43"><a xlink:title="Vineyard &#45;&gt; Alcohol">
<path fill="none" stroke="black" d="M789.81,-287.908C803.211,-282.845 817.059,-277.614 829.353,-272.969"/>
<polygon fill="black" stroke="black" points="830.723,-276.193 838.841,-269.385 828.249,-269.645 830.723,-276.193"/>
</a>
</g>
</g>
<!-- I_vineyard&#45;&gt;C_fruits -->
<g id="edge44" class="edge"><title>I_vineyard&#45;&gt;C_fruits</title>
<g id="a_edge44"><a xlink:title="Vineyard &#45;&gt; Fruit">
<path fill="none" stroke="black" d="M789.81,-314.05C803.655,-314.741 817.977,-315.455 830.57,-316.084"/>
<polygon fill="black" stroke="black" points="830.531,-319.586 840.693,-316.589 830.88,-312.595 830.531,-319.586"/>
</a>
</g>
</g>
</g>
</svg>
